<?xml version="1.0" encoding="UTF-8"?>
<svg width="2e3" height="1080" version="1.1" viewBox="0 0 929.16 501.75" xmlns="http://www.w3.org/2000/svg" xmlns:cc="http://creativecommons.org/ns#" xmlns:dc="http://purl.org/dc/elements/1.1/" xmlns:rdf="http://www.w3.org/1999/02/22-rdf-syntax-ns#">
 <metadata>
  <rdf:RDF>
   <cc:Work rdf:about="">
    <dc:format>image/svg+xml</dc:format>
    <dc:type rdf:resource="http://purl.org/dc/dcmitype/StillImage"/>
    <dc:title/>
   </cc:Work>
  </rdf:RDF>
 </metadata>
 <g transform="matrix(1.6764 0 0 1.6764 10.366 -11.292)">
  <text x="162.17783" y="217.18518" fill="#421212" font-family="Delius" font-size="24.236px" letter-spacing="5.3016px" stroke-width=".68642" style="line-height:1.25" xml:space="preserve"><tspan x="162.17783" y="217.18518" dy="0 0 0 0 0 0 0 0 0 2.862524" fill="#421212" font-family="RawengulkSans" font-size="24.236px" stroke-width=".68642">CAKES <tspan dy="-2.862524" fill="#421212" font-size="16.157px" stroke-width=".68642">AND</tspan> DESSERTS</tspan></text>
  <path d="m55.346 55.665s-25.639 45.054-2.2459 82.695c11 17.699 31.401 17.275 75.165-8.4437l-13.55 38.342s24.505-4.3243 47.568-30.847l-6.9189 26.523 42.955-25.946s-7.8753 32.667 4.036 29.117c20.346-6.0642 59.964-28.541 59.964-28.541s-4.6699 27.492 1.1532 27.964c11.074 0.89748 20.18-11.82 20.18-11.82l0.86483 10.955 58.811-31.712-4.6127 33.442 33.73-19.027c25.048 12.848 62.334-20.357 62.334-20.357s-14.465 38.655-6.0194 32.262c28.355-21.462 63.775-2.1728 64.725-38.589 2.9847-32.602-1.3112-42.175-6.383-72.085-12.929-40.097-428.28-42.814-431.76 6.0679z" fill="#e9a6a6"/>
  <g fill="#421212">
   <g transform="matrix(4.3584 0 0 4.3584 -1759 -1314.4)" aria-label="ycai s">
    <path transform="scale(.26458)" d="m1729.1 1154.3c-52.349-0.026-95.27 1.6361-137.98 16.221-7.4246 2.4124-15.08 5.3612-20.43 11.615-1.0487 1.2047-1.9623 2.75-2.4239 4.625-0.052 0.2645-0.064 0.5655-0.016 0.8965 0.013 0.089 0.031 0.1794 0.055 0.2715 0.01 0.034 0.019 0.069 0.031 0.1035-0.1952 0.142-0.3098 0.2511-0.3614 0.3066-0.4468 0.8812-0.8277 1.764-1.166 2.6289-1.369 3.5017-2.253 7.0759-2.8828 10.533-2.9496 16.213-1.2519 32.376 0.8633 45.106 0.1475 0.8775 0.373 1.6554 0.582 2.3399 0.4734 1.5953 1.0458 3.1282 1.6934 4.5898 2.0084 4.5654 4.7968 8.4728 8.2011 11.434 5.1958 4.4696 11.459 6.1277 16.856 6.1445 3.7261 0 7.0161-0.3658 9.9199-0.9375-2e-4 0.01 0 0.02 0 0.029 5.5063-1.1994 9.4804-2.9645 14.973-6.5761 0.9276-0.5328 1.9369-1.1145 2.8242-1.6231 2.3846-1.3958 4.5655-2.6747 6.543-3.8379 2.0065-1.1923 3.6641-2.2114 4.9726-3.0547-0.4071 0.9888-0.9464 2.2101-1.6152 3.6641-0.6398 1.454-1.3377 3.0401-2.0938 4.7559-0.756 1.7157-1.5253 3.5041-2.3105 5.3652-0.7561 1.832-1.4401 3.6343-2.0508 5.4082-0.6107 1.7448-1.1202 3.4023-1.5273 4.9726-0.3781 1.5413-0.5664 2.8796-0.5664 4.0137 0 1.2505 0.2617 2.2379 0.7851 2.9649 0.5234 0.756 1.4831 1.1347 2.8789 1.1347 2.4136 0 4.8565-0.3925 7.3281-1.1777 2.5009-0.7852 4.9575-1.8182 7.3711-3.0977 2.4137-1.3086 4.7552-2.8055 7.0235-4.4922 2.2973-1.6865 4.4486-3.4453 6.4551-5.2773 2.0356-1.832 3.8973-3.664 5.5839-5.4961 1.6867-1.832 3.14-3.5332 4.3614-5.1035-0.2617 0.6979-0.6246 1.5842-1.0899 2.6602-0.4653 1.0468-1.1057 2.4565-1.9199 4.2304-0.7852 1.7739-1.7726 3.9985-2.9648 6.6739-1.1923 2.6752-2.6317 5.9765-4.3184 9.9023-4.2166 3.4896-7.9837 6.9058-11.299 10.25-3.286 3.3442-6.1788 6.5442-8.6797 9.5977-2.5009 3.0823-4.6382 5.9752-6.4121 8.6796-1.7448 2.7045-3.1704 5.1472-4.2754 7.3282s-1.9042 4.0705-2.3984 5.6699c-0.4944 1.6285-0.7422 2.8657-0.7422 3.709 0 0.5525 0.117 1.0898 0.3496 1.6133 0.2617 0.5524 0.6543 1.0462 1.1777 1.4824s1.1778 0.7851 1.9629 1.0468c0.7852 0.2618 1.7309 0.3926 2.8359 0.3926 2.181 0 4.362-0.7693 6.543-2.3105 2.2101-1.5122 4.3752-3.5623 6.4981-6.1504 2.1518-2.5881 4.2456-5.6137 6.2812-9.0742 2.0356-3.4315 3.9846-7.0797 5.8457-10.947 1.8902-3.8385 3.6786-7.7802 5.3652-11.822 1.7157-4.0421 3.2999-7.952 4.7539-11.732 1.7739-1.454 3.4612-2.7626 5.0606-3.9258 1.6285-1.1632 3.2127-2.2536 4.7539-3.2715 1.5412-1.0177 3.0679-1.9774 4.5801-2.8789 1.5007-0.906 3.0473-1.8279 4.6308-2.7617 0.056-0.024 0.1101-0.041 0.168-0.074l16.619-9.7715c-1.0178 0.7852-1.9774 1.7309-2.8789 2.836-0.8724 1.105-1.6278 2.3125-2.2675 3.6211-0.6398 1.2795-1.1494 2.6317-1.5274 4.0566-0.349 1.3958-0.5234 2.7619-0.5234 4.0996 0 1.5412 0.2181 2.9946 0.6543 4.3613 0.4362 1.3668 1.1341 2.5742 2.0937 3.6211 0.9597 1.0178 2.2108 1.8327 3.752 2.4434s3.4169 0.916 5.6269 0.916c2.181 0 4.3323-0.3053 6.4551-0.916 2.1228-0.5816 4.2027-1.339 6.2383-2.2695 2.0647-0.9597 4.0851-2.0205 6.0625-3.1836 1.9774-1.1923 3.8967-2.3839 5.7578-3.5762 1.8902-1.2214 3.7222-2.3713 5.4961-3.4473 6.0315-3.2859 12.374-7.044 17.754-10.207-0.4362 0.9305-0.8585 1.9635-1.2656 3.0976-0.4072 1.1051-0.77 2.2392-1.0899 3.4024-0.3198 1.1632-0.5815 2.3112-0.7851 3.4453-0.1746 1.1341-0.2617 2.1671-0.2617 3.0977 0 1.5703 0.2458 2.9522 0.7402 4.1445s1.1645 2.1955 2.0078 3.0098c0.8724 0.7851 1.8756 1.3799 3.0098 1.7871 1.1341 0.4071 2.3396 0.6113 3.6191 0.6113s2.5881-0.2042 3.9258-0.6113c1.3377-0.4072 2.6324-1.0178 3.8828-1.8321 1.2795-0.8433 2.4711-1.8743 3.5762-3.0957 1.1341-1.2213 2.1235-2.6608 2.9668-4.3183-0.2327 0.6688-0.421 1.3667-0.5664 2.0937s-0.2188 1.4527-0.2188 2.1797c0 0.6689 0.057 1.3093 0.1738 1.9199 0.1454 0.5816 0.3497 1.1051 0.6114 1.5703 0.2617 0.4653 0.5968 0.8282 1.0039 1.0899s0.9008 0.3926 1.4824 0.3926c0.4071 0 0.8572-0.071 1.3516-0.2168 0.4943-0.1454 1.0336-0.3932 1.6152-0.7422l23.205-13.609 23.424-13.74-6.6309 14.83c-0.378 0.8434-0.7844 1.6444-1.2207 2.4004-0.4361 0.727-0.8585 1.4249-1.2656 2.0938-0.378 0.6688-0.6972 1.3231-0.959 1.9629-0.2617 0.6398-0.3925 1.2643-0.3925 1.875 0 0.8142 0.117 1.5696 0.3496 2.2676 0.2617 0.6979 0.6682 1.2947 1.2207 1.789 0.5525 0.4944 1.2504 0.887 2.0937 1.1778 0.8724 0.2908 1.9193 0.4355 3.1406 0.4355 1.2505 0 2.6324-0.2895 4.1446-0.8711 1.5412-0.6107 3.4169-1.5267 5.6269-2.748 2.2101-1.2505 4.8848-2.8208 8.0254-4.711 3.1406-1.9193 6.9653-4.1736 11.473-6.7617 0.7851-0.4653 1.3225-0.9015 1.6133-1.3086 0.3198-0.4362 0.4804-0.8288 0.4804-1.1777 0-0.4072-0.1606-0.7284-0.4804-0.961-0.2908-0.2325-0.6101-0.3476-0.959-0.3476-0.3198 0-0.5379 0.057-0.6543 0.1738-3.5187 2.0647-6.8199 4.0137-9.9024 5.8457-3.0533 1.803-5.8014 3.3872-8.2441 4.7539-2.4136 1.3377-4.4777 2.4004-6.1934 3.1856-1.6866 0.7851-2.9238 1.1777-3.709 1.1777 0.7561-1.7448 1.5135-3.446 2.2696-5.1035 0.7561-1.6576 1.4818-3.3151 2.1797-4.9727 0.6979-1.6866 1.4394-3.4611 2.2246-5.3222 0.8142-1.8902 1.5419-3.6925 2.1816-5.4082 0.6689-1.7157 1.222-3.2583 1.6582-4.625 0.4362-1.3959 0.6543-2.4705 0.6543-3.2266 0-0.4071-0.044-0.7124-0.1308-0.916-0.087-0.2037-0.1903-0.3503-0.3067-0.4375h-5.6269c-0.5816 0.3199-1.4104 0.7858-2.4864 1.3965-1.0468 0.5816-2.2385 1.2497-3.5761 2.0058-1.3086 0.7561-2.7184 1.571-4.2305 2.4434-1.5122 0.8724-3.0111 1.7448-4.4941 2.6172l-11.297 6.5859-10.426 6.1504c-1.3668 0.7561-2.6892 1.4976-3.9688 2.2246-1.2794 0.727-2.4275 1.3674-3.4453 1.9199-0.9887 0.5526-1.8036 1.0026-2.4433 1.3516-0.6108 0.3199-0.93 0.4805-0.959 0.4805 0.7851-3.1407 1.4969-5.6409 2.1367-7.502 0.6688-1.8902 1.1923-3.4466 1.5703-4.668 0.029-0.1453 0.1897-0.6827 0.4805-1.6132 0.3199-0.9597 0.6688-2.0363 1.0469-3.2286 0.378-1.2213 0.7547-2.399 1.1328-3.5332 0.3779-1.1632 0.6554-2.0217 0.8301-2.5742 0.2326-0.1164 0.5518-0.1878 0.9589-0.2168 0.4362-0.029 0.8427-0.073 1.2207-0.1308 0.4072-0.087 0.7561-0.2182 1.0469-0.3926 0.2908-0.1745 0.4375-0.4659 0.4375-0.8731 0-0.5525-0.2181-1.0462-0.6543-1.4824-0.4071-0.4362-0.99-0.801-1.7461-1.0918-0.727-0.3199-1.5994-0.5519-2.6172-0.6972-1.0178-0.1744-2.1083-0.2618-3.2714-0.2618-2.0356 0-4.2008 0.1309-6.4981 0.3926-2.2973 0.2327-4.625 0.6252-6.9805 1.1778-2.3264 0.5234-4.6224 1.2074-6.8906 2.0507s-4.4056 1.8466-6.4121 3.0098c-8.5557 5.2084-17.946 9.7728-26.041 14.438-3.0534 1.7739-5.9323 3.4314-8.6367 4.9727-2.7045 1.5412-5.2344 2.8359-7.5899 3.8828-2.3554 1.0468-4.5801 1.5703-6.6738 1.5703-1.832 0-3.331-0.5968-4.4941-1.7891-1.1632-1.1922-1.7442-3.0976-1.7442-5.7148 0-1.3959 0.1884-2.8631 0.5664-4.4043 0.4071-1.5413 0.9167-3.0679 1.5274-4.5801 0.6397-1.5121 1.3674-2.9516 2.1816-4.3184 0.8142-1.3667 1.643-2.5742 2.4863-3.6211 0.8434-1.0468 1.6563-1.8756 2.4414-2.4863 0.8143-0.6107 1.5419-0.916 2.1817-0.916 0.6688 0 1.1923 0.3629 1.5703 1.0898 0.4071 0.7271 0.6113 1.9643 0.6113 3.709 0 0.9597 0.2756 1.6715 0.8282 2.1367 0.5815 0.4362 1.1347 0.6543 1.6582 0.6543 0.6688 0 1.3231-0.117 1.9628-0.3496 0.6689-0.2617 1.2498-0.6245 1.7442-1.0898 0.5234-0.4944 0.9299-1.0911 1.2207-1.7891 0.3199-0.6979 0.4805-1.4969 0.4805-2.3984 0-1.3959-0.7277-2.4864-2.1817-3.2715-1.4249-0.8142-3.5901-1.2207-6.498-1.2207-2.0356 0-3.9985 0.3331-5.8887 1.002-1.8611 0.6397-3.9271 1.5993-6.1953 2.8789-2.2682 1.2504-4.8696 2.8068-7.8067 4.6679-2.89 1.8497-6.3898 3.988-10.486 6.4121-0.038 0.015-0.075 0.024-0.1133 0.043-3.1697 1.8611-6.1655 3.7229-8.9863 5.584-2.7917 1.832-5.51 3.7078-8.1562 5.6269 1.105-2.9951 2.0943-5.7729 2.9668-8.332 0.9014-2.559 1.6569-4.7678 2.2675-6.6289 0.6398-1.8902 1.1493-3.3594 1.5274-4.4062 0.378-1.076 0.5961-1.6133 0.6543-1.6133 0.029 0 0.043 0.028 0.043 0.086 0-0.5234-0.03-0.9874-0.088-1.3945-0.058-0.4362-0.203-0.801-0.4356-1.0918-0.2035-0.32-0.5247-0.5659-0.9609-0.7402-0.4362-0.1747-1.0172-0.2618-1.7442-0.2618-0.8724 0-1.5267 0.1884-1.9629 0.5664-0.407 0.349-0.7124 0.7713-0.916 1.2657-0.1743 0.4653-0.2894 0.9292-0.3476 1.3945-0.029 0.4361-0.1024 0.7414-0.2188 0.916-1.6866 2.0647-3.5762 4.1307-5.6699 6.1953-2.0647 2.0647-4.2179 4.0554-6.457 5.9746-2.2392 1.9193-4.4916 3.7236-6.7598 5.4102-2.2682 1.6575-4.4214 3.1109-6.457 4.3613-2.0356 1.2214-3.8954 2.1949-5.5821 2.9219-1.6575 0.6979-3.0097 1.0469-4.0566 1.0469-0.6689 0-1.0039-0.3332-1.0039-1.002s0.3053-1.6285 0.916-2.8789c0.6397-1.2504 1.4249-2.676 2.3555-4.2754 0.9305-1.5993 1.9338-3.3005 3.0097-5.1035 1.076-1.803 2.0793-3.5914 3.0098-5.3652 0.9306-1.7739 1.7018-3.4751 2.3125-5.1035 0.6397-1.6576 0.959-3.111 0.959-4.3614 0-0.6106-0.059-1.2372-0.1758-1.8769-0.1163-0.6689-0.3483-1.2795-0.6973-1.8321-0.3198-0.5815-0.756-1.0455-1.3086-1.3945-0.5525-0.378-1.2643-0.5683-2.1367-0.5683-0.5816 0-1.222 0.117-1.9199 0.3496-0.6979 0.2035-1.5703 0.5525-2.6172 1.0468-1.0469 0.4944-2.3118 1.1626-3.7949 2.0059s-3.2854 1.8902-5.4082 3.1406c-2.1228 1.2505-4.625 2.7335-7.5039 4.4492-7.2497 4.5381-14.105 7.3274-22.107 6.9688-4.8688-0.2367-10.422-1.947-14.738-5.9707-2.9156-2.6824-5.2646-6.2502-6.9922-10.436-0.5504-1.3443-1.0309-2.7406-1.416-4.1796-0.1808-0.6934-0.3554-1.3239-0.4258-1.8829-1.7251-12.579-3.0633-28.37 0.035-43.617 0.6598-3.2505 1.5152-6.5173 2.7832-9.5879 0.3129-0.7582 0.6403-1.4886 1.0039-2.1739 0.2281-0.4851 0.4001-0.9242 0.5351-1.2968v-0.096c0-0.087 0.01-0.1759 0.018-0.2676 0.036-0.3422 0.1139-0.7151 0.2109-1.1094 0.1337-0.7548 0.71-1.5677 1.4141-2.457 4.0529-4.9783 10.898-7.2174 18.23-9.7656 48-15.874 95.904-15.144 159.27-14.934 3.4486 0.012 6.8749 0.017 10.289 0.012 49.701 0 89.703-0.011 131.18 5.793 12.716 1.7937 24.235 3.9094 34.951 8.1015 7.0972 2.8601 13.477 6.2614 17.121 11.711 0.778 1.0721 1.2955 2.5577 1.8945 4.1484 0.8945 2.4696 1.6104 5.021 2.2461 7.5508 1.798 7.1704 2.8927 14.202 3.4844 20.875 0.7139 8.1679 0.6965 15.468-0.4336 22.338-1.1972 6.9191-1.3419 11.62-5.4746 16.955-3.4298 4.6458-9.8709 8.0699-13.102 8.6461-4.8923 0.8726-8.5331 1.5204-18.109-0.734-5.9312 2.9477-12.06 7.7344-17.896 11.07 1.2213-0.7852 2.2246-1.6715 3.0097-2.6602 0.7852-1.0178 1.3959-2.0368 1.8321-3.0546 0.4362-1.0469 0.7257-2.0502 0.8711-3.0098 0.1743-0.9887 0.2617-1.875 0.2617-2.6602 0-1.1341-0.1011-1.9629-0.3047-2.4863-0.1746-0.5525-0.3788-1.0462-0.6113-1.4824-0.2037-0.4653-0.3921-0.9887-0.5664-1.5703-0.1746-0.5816-0.2617-1.4837-0.2617-2.7051 0-0.4944 0.2617-1.0753 0.7851-1.7441 0.5525-0.6689 1.1474-1.3232 1.7871-1.9629 0.6398-0.6689 1.2227-1.2657 1.7461-1.7891 0.5525-0.5235 0.8281-0.9022 0.8281-1.1348 0-0.6688-0.3053-1.1486-0.916-1.4394-0.5816-0.3199-1.337-0.4785-2.2676-0.4785-0.8433 0-1.7593 0.1151-2.748 0.3476-0.9887 0.2036-1.9345 0.495-2.8359 0.8731l-6.1075 4.1445c-2.0065 1.3086-4.6078 3.0236-7.8066 5.1465-3.1697 2.0937-7.0955 4.7248-11.777 7.8945-0.727 0.4071-1.2365 0.8592-1.5273 1.3535-0.3199 0.4944-0.4805 0.9445-0.4805 1.3516 0 0.349 0.1031 0.6405 0.3067 0.873 0.2035 0.2326 0.4653 0.3477 0.7851 0.3477 0.3199 0 0.6253-0.1011 0.916-0.3047l26.738-17.842c-0.7851 0.6107-1.4692 1.5128-2.0507 2.7051-0.5526 1.1923-1.0027 2.4136-1.3516 3.6641-0.3491 1.2504-0.6108 2.4142-0.7852 3.4902-0.1454 1.0759-0.2168 1.8036-0.2168 2.1816 0 2.5009-0.3212 4.8703-0.9609 7.1094-0.6107 2.2391-1.4395 4.202-2.4863 5.8887-1.0178 1.6575-2.1956 2.98-3.5332 3.9687-1.3377 0.9597-2.7177 1.4395-4.1426 1.4395-0.8142 0-1.4408 0.1745-1.877 0.5234-0.4362 0.3199-0.6683 0.6847-0.6972 1.0918 0 0.378 0.2042 0.7251 0.6113 1.0449 0.4362 0.3199 1.1183 0.4805 2.0488 0.4805 1.2214 0 2.4586-0.1448 3.709-0.4355 1.2505-0.2908 2.5729-0.8579 3.9688-1.7012 0.7851-0.4653 1.7586-1.0482 2.9218-1.7461 1.1632-0.727 2.6463-1.6272 4.4493-2.7031 1.832-1.076 4.0288-2.3568 6.5878-3.8399 4.1467-2.7221 7.0567-4.1279 10.568-6.4785 5.9171 1.6866 9.2912 2.423 18.644 0.5338 7.2207-1.2737 10.672-5.15 13.883-8.5494 4.5397-5.1234 7.0466-11.957 8.3907-19.236 1.3911-7.217 0.3814-15.628-0.1778-24.033-0.4495-6.8824-1.428-14.164-3.1504-21.633-0.6056-2.6324-1.3187-5.3461-2.2402-8.0488-0.5311-1.628-1.1978-3.4819-2.3691-5.2891-4.5581-6.6651-11.682-10.859-19.213-13.818-11.273-4.5555-23.216-6.94-36.062-8.8516-41.778-6.2627-82.451-6.5285-131.99-6.5332-3.4029 0-6.8203-0.02-10.264-0.037-7.89-0.04-15.561-0.078-23.039-0.082zm46.94 100.68-4.6231 12.781c-0.2908 0.8143-0.7706 1.7739-1.4394 2.8789-0.6398 1.076-1.3952 2.1962-2.2676 3.3594-0.8724 1.1341-1.832 2.2682-2.8789 3.4023-1.0178 1.1051-2.0647 2.1083-3.1406 3.0098-1.0469 0.8724-2.0938 1.5842-3.1407 2.1367-1.0178 0.5235-1.9635 0.7852-2.8359 0.7852-1.4831 0-2.5597-0.4501-3.2285-1.3516-0.6398-0.9305-0.959-2.138-0.959-3.6211 0-1.3376 0.2756-2.8505 0.8281-4.5371 0.5816-1.6866 1.3826-3.3878 2.4004-5.1035 1.0469-1.7448 2.296-3.4301 3.75-5.0586 1.4831-1.6575 3.1267-3.1267 4.9297-4.4062 1.832-1.2795 3.8088-2.3125 5.9316-3.0977 2.1229-0.7852 4.3475-1.1777 6.6739-1.1777zm-126.54 38.734c-0.8725 2.0357-1.7885 4.2027-2.7481 6.5-0.9305 2.2974-1.9477 4.7698-3.0527 7.4161-0.8724 1.6866-1.7884 3.4453-2.7481 5.2773-0.9305 1.8611-1.8763 3.6792-2.8359 5.4531-0.9597 1.7739-1.9193 3.4453-2.8789 5.0157-0.9597 1.5994-1.9035 2.9952-2.834 4.1875-0.9015 1.2213-1.7897 2.1809-2.6621 2.8789-0.8433 0.727-1.6424 1.0898-2.3984 1.0898-0.6398 0-0.959-0.3331-0.959-1.0019 0-0.5816 0.2022-1.5413 0.6093-2.879 0.4362-1.3086 1.0033-2.8214 1.7012-4.5371 0.727-1.7157 1.5716-3.5616 2.5313-5.539 0.9596-1.9484 1.9629-3.8677 3.0097-5.7578 1.0469-1.8612 2.1077-3.6059 3.1836-5.2344 1.076-1.6285 2.109-2.9668 3.0977-4.0137 3.2569-3.3442 6.2509-6.2964 8.9844-8.8555z" fill="#421212"/>
   </g>
   <path d="m59.176 58.594c-0.0538 0.01173-0.03484 0.354 0.05856 1.0295 0.32585 0.83812 0.99004 1.7098 2.4034 2.7869 1.83 1.3968 4.0358 2.5502 7.402 3.8629 4.198 1.6434 8.8619 3 15.08 4.4125 17.563 3.9928 35.766 6.204 64.007 8.2973 36.349 2.6996 74.718 3.7515 121.74 3.8114 5e-3 7e-6 5.4371 0.0028 5.4316 0.0028 47.106-0.0085 84.96-0.93056 120.95-3.4545 26.95-1.8865 44.277-3.8759 60.996-7.4434v-2e-6c5.9468-1.2679 10.399-2.4821 14.418-3.9533 3.2288-1.1775 5.3358-2.2034 7.1105-3.4601 1.355-0.94339 2.0019-1.7121 2.3374-2.4832 0.13019-0.29845 0.16553-0.535 0.16079-0.70351v-1e-6c-3e-3 -0.08423-0.0152-0.14553-0.0303-0.18571v-1e-6c-0.0203-0.01694-0.0321-0.03046-0.0386-0.03972-6e-3 -0.0092-8e-3 -0.01453-8e-3 -0.01525-1e-5 -4.9e-5 -1e-5 -3.9e-5 -1e-5 -3.9e-5s0-1e-5 1e-5 4e-5c1.3e-4 7.37e-4 9.4e-4 6e-3 -3e-3 0.01677-4e-3 0.01077-0.0122 0.02686-0.0307 0.04901-0.0132 0.04513-0.022 0.0814-0.0466 0.15451v1e-6c-0.0479 0.15195-0.11814 0.32354-0.28105 0.5769-0.44373 0.69062-1.0276 1.2115-2.4277 2.0674-1.8306 1.0974-3.8373 1.9239-7.1046 2.9622-4.0497 1.2811-8.4057 2.3031-14.377 3.4034l-1e-5 2e-6c-16.969 3.1241-33.66 4.7264-60.852 6.3235-36.303 2.1273-73.335 2.8095-120.77 2.8009 0.072 1.6e-5 -5.4993-0.0041-5.4273-4e-3 -47.301-0.061619-84.947-0.88798-121.55-3.2075-28.471-1.8083-46.046-3.623-63.847-7.164-6.2397-1.2423-10.807-2.4007-15.033-3.8491-3.4015-1.1712-5.5104-2.1158-7.3961-3.3488-1.4427-0.94434-2.0623-1.5631-2.4987-2.322-0.18834-0.61656-0.3136-0.93546-0.36738-0.92373z"/>
   <path d="m49.656 159.5c-1.249 0.0296-1.5537 32.933-0.72118 87.293-0.0016-2e-3 6.5576 7.4933 6.556 7.4915 8.2374 6.4945 17.855 10.855 28.445 14.679 19.465 7.0235 40.207 11.316 63.722 14.665 0-1e-5 3e-5 0 3e-5 0 35.527 5.0789 72.452 7.1073 113.38 7.4752 3.9567 0.04 7.9435 0.0727 11.948 0.0935 69.598 0.36235 124.81-3.5862 176.75-20.524 1e-5 -1e-5 1e-5 -1e-5 2e-5 -1e-5 12.266-4.0109 23.334-8.5817 33.179-15.108 2.9698-2.7506 5.862-5.4223 8.6807-8.0188 0.32185-58.14-0.38229-93.595-1.6789-93.609-1.2964-0.0144-2.786 35.095-3.7336 91.005-2.4057 1.6591-4.8502 3.3345-7.3363 5.0282-9.1315 5.7457-19.541 9.6587-31.454 13.29 0-1e-5 -2e-5 0-2e-5 0-51.238 15.672-104.81 18.78-174.36 18.516-3.9873-0.0151-7.9634-0.0388-11.91-0.0667-40.764-0.33325-77.132-2.059-112.29-6.6338h-2e-5c-23.294-3.0442-43.466-6.8131-62.416-13.201-10.23-3.444-19.098-7.0346-26.48-12.586-1.8512-1.6218-3.6753-3.2271-5.474-4.8172-1.6962-52.412-3.5519-85.003-4.8007-84.973z"/>
  </g>
  <path d="m421.5 105.47s-5.8491 3.5045-10.439-0.75209c0 0 0.21312 5.8533-6.506 5.415l-2.8484 1.1046s0.61759 5.3524-3.0563 6.0344c-3.6738 0.682-8.7629-1.5264-8.7629-1.5264s-1.5782 2.8981 0.95853 8.9997c0 0-10.023 4.0317-11.036-4.3462l-4.224 1.7294-3.6438-8.3321-2.712 2.9664s-4.2802-2.3799-4.257-10.06c0 0-4.2877 6.6653-7.4035 1.7425-3.1158-4.9228-1.034-3.8347-1.034-3.8347l-11.183 0.40882 2.5339-11.025s-7.3905-1.1208-7.239-2.2195c0.53177-3.8572 5.9593-14.804 5.9593-14.804s1.3885-4.2878-7.9892-3.9836c0 0-3.7294-2.1118 1.6604-7.4583 0 0-5.9623-6.7424-3.2344-9.2602 2.728-2.5179 3.1448-1.765 3.1448-1.765l0.31511-7.356 7.1828 2.2917s-0.57217-4.5067 3.4016-3.4045c3.9737 1.1022 6.5815 3.1498 9.6982 1.7611 0 0-1.1653-4.6052 2.3951-5.4461 3.5603-0.84077 5.3094-0.43833 6.7504-2.5636 1.4411-2.1253 1.699-4.7334 6.3371-2.5218 4.6381 2.2116 2.8112-0.65796 2.8112-0.65796s4.9673 1.7891 5.2354 4.7493l0.68104-3.5499s4.1737-2.7229 8.0502 0.0724c1.3e-4 2e-3 3.9809-2.9 3.9809-2.9l5.1086 7.1697s5.4596-1.5269 5.7147 2.6332c0.25496 4.16 2.6909 4.8292 2.8461 6.3309 0.15516 1.5017-1.6374 4.7825-1.6374 4.7825l1.2293 0.75266s9.0776-0.84191 4.5216 3.4093c0 0 4.2251 0.74584 6.2508-0.30379 2.0256-1.0496 0.95627 10.324 7.4077 12.552 4.6116 1.5927-2.5601 8.2231-3.3397 7.6357-0.77958-0.58733-5.0532 0.20878-0.85132 3.7226 4.2019 3.5138 2.4586 7.42 2.4586 7.42s-2.4744-2.2802-3.9817-1.6107c-1.5072 0.6695-4.5849 11.822-4.5849 11.822z" fill="#fff"/>
  <g fill="#421212">
   <path d="m388.46 101.3c3e-3 4e-3 0.0156 0.0164 0.0628 0.0258 0.0244 0.0208 0.0538 0.0533 0.0881 0.0964 0.0651 0.0821 0.1486 0.20351 0.25393 0.35919 0.16775 0.24776 0.44708 0.67089 0.78022 1.0744 0.26374 0.31647 0.61742 0.70582 1.0363 0.956 0.31539 0.1832 0.72195 0.32156 1.0633 0.23008 0.39867-0.0559 0.72915-0.41483 1.1991-0.85132 0.46583-0.47318 0.93517-1.0442 1.5304-1.6189 0.49125-0.49268 1.1511-1.0203 2.0274-1.271 0.9469-0.21278 1.9202 0.0367 2.6773 0.59706 0.92459 0.67608 2.573 0.6619 3.4362-0.27551 0.84259-0.77729 0.93564-2.4192 0.14798-3.441-0.34377-0.41986-0.74737-0.95605-0.99129-1.6515-0.0611-0.17419-0.11204-0.35791-0.14967-0.55192-0.0495-0.80763 0.30313-1.4634 0.82702-1.8332 1.6969-1.2533 3.5601-1.7287 4.9882-2.5012 0.81073-0.49298 1.5404-0.84578 1.7512-1.4155 0.16432-0.20641 0.0408-0.62265-0.11905-1.0128-0.80371-1.5982-1.7828-2.5919-2.0881-4.4108-0.0821-0.56804-0.42816-1.0635-0.85947-1.171-0.59342-0.22198-1.3709-0.07558-1.9697 0.04965-2.0214 0.77364-3.2051 1.15-3.22 0.99456-0.0143-0.14919 1.0515-0.77 2.9479-1.74 0.62693-0.2278 1.5303-0.47545 2.5048-0.27216 0.85523 0.24213 1.5492 0.97731 1.7291 1.9457 0.21161 1.2121 1.3017 2.3338 2.1723 3.9739 0.34363 0.58166 0.50969 1.3874 0.20176 2.2292-0.52882 1.0715-1.4644 1.6971-2.3236 2.1346-1.6252 0.92886-3.45 1.4055-4.7704 2.4415-0.15231 0.14321-0.29952 0.31026-0.22147 0.35526 0.01 0.19266 0.0992 0.39334 0.23305 0.61216 0.16415 0.26834 0.3924 0.56048 0.61497 0.89078 1.2383 1.7093 1.0329 4.0317-0.33856 5.45-1.556 1.4616-3.8437 1.4108-5.3274 0.32726-0.50479-0.3617-1.0794-0.57863-1.5435-0.44903-0.52017 0.0884-1.0343 0.49118-1.5169 0.89045-0.55514 0.47892-1.0625 1.0257-1.6059 1.5091h-1e-5c-0.47967 0.46361-1.0631 0.88193-1.7979 1.0022-0.68194 0.0678-1.2672-0.18257-1.6723-0.50136-0.5078-0.39558-0.8504-0.8803-1.0791-1.2662-0.30201-0.50412-0.48808-0.96695-0.58887-1.2764-0.0603-0.18491-0.096-0.33269-0.11128-0.43873-8e-3 -0.0566-0.0107-0.10122-8e-3 -0.13373v-1e-5c0.0304-0.0426 0.0289-0.0599 0.0283-0.0627-7e-5 -3e-4 -6e-5 -2.8e-4 8e-5 -3e-5 1.2e-4 2.1e-4 3e-4 5e-4 5.6e-4 8.5e-4z"/>
   <path d="m365.13 107.35c0.0501 0.0863-0.15902 0.77475 0.15905 2.1338 0.22617 0.85835 0.56309 1.7561 1.1306 2.9559 0.40833 0.85983 0.92031 1.8304 1.5565 2.799 0.38744 0.56776 0.76327 1.2176 1.2564 1.5245-0.0317-0.0127-0.0254-0.0116-0.0914-6e-3 0.0704-0.0259 0.13777-0.16725 0.26568-0.3519 0.2735-0.45769 0.48396-1.0324 0.82177-1.6425 0.11712-0.23058 0.29259-0.50739 0.5803-0.76765v-1e-5c0.26281-0.2454 0.66856-0.34042 1.1357-0.19872 0.49111 0.2633 0.75872 0.62756 0.87788 0.91476 0.32648 0.58 0.54683 1.1802 0.7434 1.7757 0.63513 1.663 1.174 3.8604 2.598 4.3316 0.22817 0.10574 0.53643 0.0988 0.7877-7e-3 0.30066-0.11234 0.58564-0.36613 0.87876-0.6677 0.29503-0.32571 0.65507-0.66411 1.1143-0.9413 0.25986-0.21902 0.73938-0.35437 1.3724-0.21738 0.61724 0.33437 0.90233 0.80403 0.91092 1.1895 0.12767 0.66463 0.0815 1.2822 2e-3 1.8244-0.19754 0.8634 0.61123 1.824 1.5836 2.2976 1.499 0.7062 3.3265 0.71684 5.1792 0.48286 3e-5 -1e-5 0.0302-4e-3 0.0303-4e-3 0.67173-0.15038 1.3246-0.32774 1.4247-0.72632 0.23283-0.35278 0.12359-0.9621 0.0223-1.6158-0.31498-1.4536-1.2149-3.032-1.2315-4.9117-0.0135-0.41491 0.14654-0.86772 0.50751-1.2599 0.38677-0.33353 0.7956-0.485 1.1437-0.51672 1.0035-0.13473 1.9268 0.0438 2.7081 0.20567 2.2909 0.42233 4.0473 1.0488 5.9384 0.89449 0.55889-9.2e-4 1.1065-0.45323 1.4617-0.97421 0.43869-0.65857 0.69134-1.5038 0.93542-2.3151 0.21915-0.76562 0.38006-1.534 0.77593-2.3194 0.10913-0.26713 0.33762-0.5713 0.72478-0.79856 0.46628-0.17784 0.88574-0.11137 1.1708 0.077 0.0618 9e-3 0.0474 0.0349-0.0367 0.0269-0.0883 0.0497-0.11749 0.0542-0.0978 0.0582 0.11525-0.12268 0.10987-0.42308 0.1489-0.76293 0.0727-1.1977-0.11653-2.5254-0.24533-3.5294-0.18853-1.4511-0.45207-3.0441-0.57669-3.8449-0.0879-0.56459-0.15235-1.004-0.18692-1.3142-0.0184-0.16467-0.0282-0.29222-0.0287-0.38075-2.4e-4 -0.0456 2e-3 -0.081 7e-3 -0.10583 6e-3 -0.0332 0.0171-0.0478 0.0329-0.0435 9e-3 3e-3 0.0201 0.0118 0.0326 0.0276 0.0158 0.0199 0.034 0.0503 0.0547 0.0911 0.0402 0.0793 0.0892 0.19759 0.14644 0.35379 0.10728 0.29275 0.24385 0.72025 0.40118 1.2709 0.25287 0.88485 0.60762 2.2531 0.91461 3.8157 0.19852 0.99949 0.46499 2.3449 0.45379 3.6928 0.0167 0.33462-3e-3 0.79169-0.25326 1.2742-0.0865 0.17945-0.2754 0.34065-0.56636 0.4366-0.3161 0.0438-0.56311-0.0108-0.71391-0.11546-0.11602-0.0282-0.20378-0.0741-0.15478-0.0398-0.0479-6e-3 -0.0957 0.1337-0.20882 0.31515-0.2952 0.6092-0.39834 1.2997-0.62123 2.1381-0.21005 0.83655-0.4797 1.7923-1.0115 2.6803-0.48711 0.82149-1.3431 1.4996-2.4466 1.6366-2.2285 0.1874-4.1563-0.40943-6.3144-0.7991-0.80592-0.12775-1.5721-0.29165-2.2102-0.16766-0.18439 0.0522-0.32171 0.0731-0.32559 0.11801-0.019-0.0241-0.0205 0.0717-0.0397 0.19032-0.0491 1.3224 0.84669 2.7548 1.2332 4.5691 0.19885 0.7445 0.27125 1.6901-0.14291 2.6389-0.61438 1.0388-1.6648 1.5089-2.6097 1.5833-0.30842 0.0461-0.62217 0.0841-0.93962 0.11207-1.7361 0.15277-3.5132-4e-3 -5.1339-0.73095-1.4959-0.65849-2.5908-2.1812-2.4492-3.9094 0.0587-0.51306 0.11724-0.95862 0.0324-1.3197-0.11019-0.15288-0.0438-0.22385 0.0636-0.0816 0.13239-0.0382 0.0768 0.0509-0.11953 0.0942-0.26467 0.14226-0.51845 0.38871-0.78905 0.66259-0.36813 0.39958-0.83442 0.76647-1.4121 1.0054-0.61445 0.24029-1.2953 0.22882-1.9032-0.0327-2.1588-1.105-2.83-3.5705-3.267-5.2418-0.18181-0.58175-0.35171-1.1076-0.59972-1.5675-0.16981-0.23622-0.22566-0.42387-0.27017-0.39483 0.13385-4e-3 0.14653 0.0206 0.13346 4e-3 -0.10103 0.0629-0.19557 0.22915-0.32547 0.42748-0.29634 0.49096-0.53924 1.0778-0.89745 1.6403-0.12186 0.21872-0.32253 0.47757-0.64634 0.6941h-1e-5c-0.3774 0.19716-0.78106 0.16798-1.1041-0.0512l-1e-5 -1e-5c-0.72197-0.55438-1.1398-1.3082-1.4642-1.8864-0.61907-1.0525-1.0915-2.0865-1.4521-2.9995-0.49824-1.2562-0.77737-2.2592-0.91248-3.1668-0.25945-1.4835 0.29367-2.3293 0.34724-2.2371z"/>
   <path d="m343.98 82.687c0.14822 0.05993 0.71419 2.2118-0.92061 5.1529-0.49497 0.90377-1.6365 2.4161-1.9204 3.5468-0.10889 0.22385 0.0978 0.56445 0.38299 0.75751 0.48978 0.33533 1.1237 0.48171 1.866 0.66658 0.76325 0.17855 1.5846 0.31519 2.4507 0.49894 0.59462 0.11131 1.338 0.25168 2.0504 0.68545l1e-5 5e-6c0.29538 0.23483 0.45029 0.4991 0.47446 0.7385v4e-6c0.0505 0.29324 0.0409 0.54632 8e-3 0.74797v3e-6c-0.0815 0.6134-0.25422 1.1672-0.42612 1.6921-0.41511 1.2974-0.97709 2.7653-1.3 4.0924-0.14768 0.61638-0.27005 1.2281-0.26966 1.8114 0.0169 0.45114 0.0537 0.87025 0.24605 1.1095 0.11887 0.23384 0.46739 0.38031 0.84059 0.46076 0.69123 0.13192 1.4769-0.03 2.3266-0.22826 1.4223-0.36344 2.9973-0.81993 4.6669-0.89646 0.33281-0.0356 0.78105-0.0126 1.2874 0.19105 0.21693 0.10895 0.39906 0.25627 0.5404 0.43288 0.1108 0.13847 0.19634 0.29471 0.25396 0.46416 0.22176 0.77743 0.13964 1.4156 0.17794 1.8059 0.0797 0.73415 0.39634 1.4456 0.8561 2.0288 0.50607 0.61554 1.1487 1.1009 1.819 1.1809 0.6228 0.11574 1.3284-0.0701 1.9968-0.34631 1.31-0.55342 2.475-1.5966 3.5874-2.5772 0.41872-0.3936 1.0145-0.61831 1.675-0.5584 0.56533 0.0981 0.99327 0.30793 1.313 0.4311 1.1545 0.46239 2.5437 0.1304 3.6852-0.40104 1.4039-0.67953 2.4078-1.9406 2.5788-3.2444 0.0883-0.569 0.0816-1.2155 0.0944-1.8115-4e-3 -0.52241 0.0191-1.0957 0.26701-1.6687 0.0151-0.12782 0.1548-0.35104 0.46991-0.55928 0.40471-0.07791 0.66815 0.01634 0.75979 0.19893 0.27584 0.36705 0.37504 0.73818 0.45808 0.97896 0.15426 0.3514 0.22897 0.62602 0.39988 0.76484-0.0386 0.10974 0.17006 0.0122 0.31355-0.0847 0.69477-0.59134 0.96873-1.6165 1.0966-2.1934 0.10573-0.97928 0.19949-1.4911 0.27615-1.4476 0.0709 0.04015 0.12266 0.5525 0.15573 1.4849-0.0379 0.63288-0.20757 1.7757-1.0274 2.6681-0.28108 0.3186-0.7958 0.48394-1.3278 0.16946-0.35113-0.3099-0.53588-0.68825-0.67543-1.0247-0.15096-0.30626-0.23287-0.60665-0.36717-0.72416-0.0119 0.06082 0.0839 0.05263 0.34226 0.0454 0.0681-0.08869 0.0947-0.02223-4e-3 0.10752-0.14792 0.32373-0.11025 0.74577-0.10989 1.28 0.0179 0.57877 0.0521 1.2628-0.0195 1.9557-0.2114 1.7135-1.3654 3.3587-3.1077 4.2521-1.3127 0.69568-3.0233 1.1048-4.7197 0.56803-0.44946-0.14627-0.78672-0.32508-1.0458-0.34041-0.12751-0.0487-0.33011 0.0674-0.51223 0.21971-1.0907 1.0215-2.3599 2.1637-3.9457 2.8915-0.8228 0.38355-1.8035 0.61799-2.837 0.48345-1.1548-0.19586-2.1336-0.86279-2.807-1.7313-0.63414-0.79314-1.0651-1.7655-1.1938-2.8145-0.0887-0.69532 0.0174-1.2206-0.1107-1.4916 6e-3 0.01 6e-3 2e-3 0.0337 0.0299-0.0331-0.0312-0.10359-0.0401-0.20433-0.0427-0.0956-2e-3 -0.21807 6e-4 -0.36069-5e-3 -1.4095 0.0469-2.8886 0.48361-4.3564 0.83628-0.90745 0.2372-1.9099 0.39862-2.9593 0.23157-0.69626-0.10326-1.3812-0.48127-1.8478-1.1378-0.39845-0.65935-0.5077-1.3595-0.47596-1.9634v-1e-5c0.0194-0.76862 0.16674-1.4909 0.3435-2.1518 0.38314-1.4522 0.97895-2.9292 1.4072-4.1684 0.17686-0.52418 0.34186-0.98802 0.40556-1.4373v-2e-6c0.0155-0.15204 0.0341-0.25752 0.0173-0.31093-0.0233-0.0053 0.0186 0.01526 0.1074 0.11414v2e-6c-0.37612-0.28251-0.98395-0.38826-1.6036-0.5533-0.8239-0.2008-1.6543-0.36784-2.46-0.58594-0.75237-0.19301-1.5148-0.43173-2.2027-0.91114-0.62523-0.43679-0.92777-1.203-0.74513-1.9597 0.48026-1.4315 1.7148-2.8738 2.2292-3.6596 1.7594-2.7274 1.4474-4.808 1.6019-4.7456z"/>
   <path d="m359.34 63.881c-0.0241-0.03797 3e-3 -0.20017-0.12295-0.47262-0.0958-0.18875-0.22192-0.35687-0.44182-0.60612-0.39488-0.4427-0.87282-0.86685-1.6261-1.4139-0.53703-0.38738-1.205-0.82481-1.9488-1.1621v-1e-6c-0.46776-0.18505-0.96743-0.45065-1.2901-0.32181-0.58924 0.13956-1.157 0.1499-1.7392 0.15884-0.7842 0.01702-1.5572 0.0029-2.408-0.01753-1.383-0.03259-3.1913-0.13302-4.7375-0.05533-1.7451 0.02893-3.276 1.4596-4.5059 3.2837v1e-6c0.0533 0.05426-0.0102-0.02219-0.0687-0.33937v-6e-6c-0.10472-0.06169-0.0937-0.12298 0.0713-0.02776 0.37855 0.10225 0.87177 0.10964 1.4514 0.22183 0.21284 0.02539 0.50766 0.10652 0.84158 0.31071v3e-6c0.35184 0.25442 0.5201 0.66584 0.4458 1.1534-0.17978 0.52843-0.46634 0.85321-0.69419 1.0213-0.46822 0.44318-0.97001 0.80286-1.4633 1.1366-1.5688 1.1043-2.9593 2.9029-2.8522 4.8021 0.0349 0.55845 0.11129 1.0921 0.36974 1.4347 0.0971 0.08971 0.10516 0.14562 0.0483 0.08642-0.18283-0.02911-0.28503-0.01559-0.38743 0.07566 0.42776-0.355 0.82707-0.48609 1.0925-0.50928 0.47239-0.10617 0.93629-0.15182 1.382-0.16868 1.089-0.04776 2.2093 0.04802 3.3046 0.33468 0.35581 0.07412 0.73237 0.18844 1.1012 0.35868 0.60482 0.27918 1.1822 0.7057 1.6152 1.3426 0.30665 0.52584 0.40517 1.12 0.30911 1.6819-0.14296 0.74829-0.49061 1.3636-0.87363 1.8488-1.1357 1.5834-1.7085 3.6434-0.88072 5.0833 0.55785 1.0082 1.8532 1.758 2.6665 1.2836 1.6157-0.70395 3.408-0.72051 4.9532-0.22762 0.658 0.18378 1.341 0.54425 1.8524 1.1741l1e-5 4e-6c0.4753 0.67888 0.51649 1.5005 0.21053 2.1761-0.44742 0.84256 0.06 2.0747 0.77318 2.7347 0.34579 0.27906 0.74589 0.47792 1.0624 0.39938 0.44781-0.01205 0.84872-0.54184 1.1696-1.0502 0.28428-0.5926 0.68746-1.2704 1.4363-1.6722 0.58976-0.21156 1.1307-0.04636 1.4689 0.28356 0.83676 0.76735 1.1437 1.6465 1.7089 1.9951 0.29034 0.25098 0.88708 0.16716 1.4052 0.1392 0.81471-0.07966 1.6379-0.28482 2.2653-0.44929 1.9745-0.6326 3.0566-0.92556 3.0331-0.80426-0.0222 0.11444-1.0269 0.58776-2.8457 1.3541-0.6279 0.22723-1.459 0.50199-2.3518 0.65166-0.51081 0.11-1.2525 0.21567-1.9647-0.16384-0.84905-0.54295-1.2929-1.4825-1.9015-1.9763-0.15291-0.09901-0.34157-0.18985-0.36399-0.10231-0.37456 0.14708-0.57094 0.67146-0.91353 1.2621-0.31901 0.69943-0.94352 1.4441-1.9384 1.6912-0.77829 0.11782-1.527-0.14639-2.0675-0.62448-1.1262-0.91104-1.8198-2.6003-1.1877-4.203 0.11299-0.27353 0.10434-0.64216-0.0745-0.81114v-1e-6c-0.21532-0.3122-0.67143-0.49609-1.185-0.67141-1.2542-0.36514-2.7126-0.33172-3.9483 0.23422-1.7837 0.68164-3.7591-0.24999-4.6057-1.9185-1.078-2.1931-0.49427-4.823 0.97576-6.7215 0.28749-0.41076 0.53648-0.80199 0.57822-1.1702 0.0332-0.21968 1e-3 -0.45793-0.10578-0.61464-0.21965-0.48438-0.943-0.7231-1.7188-0.97789 0.0178 0.0058-0.0749-0.0246-0.0571-0.01875-0.91979-0.24382-1.886-0.325-2.8417-0.28946h-1e-5c-0.39209 0.01727-0.76158 0.04885-1.1002 0.12696-0.25079 0.09405-0.40137 0.08766-0.34993 0.10087-0.3202 0.3044-0.75585 0.40646-1.2245 0.27495-0.42572-0.19199-0.68828-0.44817-0.80971-0.68191-0.46847-0.73527-0.62602-1.5432-0.62218-2.2643-3e-3 -2.6226 1.629-4.8048 3.5678-6.0608 0.48053-0.32172 0.92359-0.62397 1.2925-0.96934 0.18459-0.22028 0.33762-0.30742 0.29642-0.32196 2e-4 0.19545 0.028 0.29218 0.13345 0.37651v-1e-6c-5e-3 -0.02945-0.12449-0.04058-0.31142-0.09611-0.41759-0.08965-0.94366-0.11359-1.5274-0.26701-0.19195-0.0062-0.50098-0.15008-0.82994-0.50244l-1e-5 -1.1e-5c-0.24757-0.57632-0.18988-1.0176 0.0385-1.2293v-4e-6c1.327-2.0601 3.3025-3.6352 5.61-3.7466 1.6558-0.03237 3.4553 0.129 4.8253 0.21585 0.85065 0.0533 1.6002 0.09911 2.363 0.1174 0.59374 0.0098 1.0845 0.03506 1.5506-0.05723 0.76942-0.10959 1.4013 0.22007 1.8248 0.47522v1e-6c0.79152 0.4215 1.4604 0.93028 1.9839 1.3799 0.72437 0.6185 1.2038 1.1497 1.5479 1.6637 0.1938 0.28653 0.30893 0.52673 0.36803 0.7556v1e-6c0.11603 0.39552-0.0792 0.60102-0.10693 0.55733z"/>
   <path d="m371.94 53.652c-0.0626 0.0127-0.26597-0.34305-0.67431-0.4244-0.0572-0.01842-0.14885 0.01861-0.18342 0.08638-0.23817 0.29764-0.195 0.60526-0.33381 1.2408-0.04 0.22324-0.0879 0.49367-0.16704 0.7646-0.0272 0.16227-0.11488 0.40334-0.36628 0.63214-0.36333 0.16531-0.69422 0.10847-0.86073-0.08701-0.31978-0.27995-0.5221-0.61232-0.69626-0.92992-0.63176-1.0717-1.5453-2.4621-2.8218-3.304-0.33432-0.21036-0.66458-0.40528-0.96242-0.4217-0.13553 0.01241-0.27359 0.01575-0.2241 0.04725-0.0477-0.12266 0.10014 0.0483 0.11726 0.38506v2e-6c0.10601 0.30151 0.26233 0.73976 0.24324 1.3165-0.16607 0.75174-0.69969 1.2256-1.2842 1.3277-1.1407 0.26214-2.2328 0.1038-3.2656-0.06703-1.6784-0.13294-4.0895-0.0783-4.4091 1.3309-0.12046 0.29817-0.0743 0.72086 0.1338 0.9374 0.25526 0.38926 0.90309 0.52196 1.5794 0.58393 0.75724 0.0171 1.6084 0.07288 2.4705 0.36139 0.47352 0.1277 0.98785 0.46759 1.345 1.0812 0.34346 0.94096 0.18737 1.7357 0.0759 2.2909-0.0189 0.094-0.0363 0.18042-0.0495 0.25907-0.0624 0.51978-0.23278 0.90361-0.37208 1.1689v3e-6c-0.22034 0.4828-0.46187 0.93923-0.69283 1.3745-0.57443 1.0871-1.1255 2.0792-1.5618 3.1166-0.19191 0.46127-0.35783 0.89575-0.44393 1.321v2e-6c-0.0445 0.33233-0.10111 0.5872-0.0256 0.70994-0.0287 0.03316 0.0828 0.09351 0.18253 0.12719 0.32636 0.10466 0.78713-0.01001 1.3001-0.1164 1.025-0.29186 2.2056-0.5219 3.4165-0.15792 0.77209 0.28369 1.2805 0.95083 1.3795 1.727 0.0859 1.4242-0.56911 2.6293-0.94389 3.5189-0.35535 0.94431-0.36294 2.0035-5e-3 2.805 0.15706 0.33412 0.43754 0.62016 0.72266 0.64157 0.60088 0.14494 1.3512-0.30043 1.9722-0.65693 0.85958-0.56358 1.7489-0.8908 2.6365-0.82048 0.72004 0.07732 1.2472 0.47234 1.563 0.88708 0.37002 0.49071 0.52327 1.0144 0.58885 1.3333 0.0434 0.20829 0.0589 0.37627 0.0594 0.49199 1.9e-4 0.06339-4e-3 0.11252-0.0116 0.14724-0.0102 0.04633-0.0245 0.0666-0.0437 0.06146-0.013-0.0035-0.0267-0.01853-0.0439-0.04485-0.0187-0.02891-0.0406-0.07198-0.0663-0.12788-0.0472-0.10242-0.10748-0.24843-0.19195-0.43039-0.12729-0.27231-0.35273-0.73024-0.70129-1.0793-0.27622-0.27756-0.71341-0.5353-1.1945-0.52884-0.66578-0.02112-1.3066 0.32804-2.0893 0.86478-0.60257 0.46328-1.5028 1.0205-2.612 0.94595-0.70784-0.10666-1.3063-0.56828-1.6071-1.2033-0.53686-1.0927-0.61426-2.4684-0.15744-3.7228 0.34196-1.0522 0.9326-2.1115 0.77112-2.9327-0.0132-0.23672-0.22777-0.49982-0.46107-0.54483-0.69979-0.26118-1.5865 0.0068-2.6153 0.24429-0.54481 0.16619-1.2291 0.29588-1.995 0.15351-0.53134-0.10914-1.0056-0.47375-1.264-1.055-0.18929-0.58476-0.16158-1.1205-0.0541-1.5394v-3e-6c0.1169-0.57775 0.30695-1.1105 0.5155-1.6105 0.47078-1.1399 1.0366-2.1824 1.5991-3.2533 0.22888-0.43759 0.45562-0.86763 0.64797-1.2941v-2e-6c0.12349-0.31373 0.24812-0.52344 0.23515-0.64219 0.0101-0.4344 0.0925-0.80565 0.15106-1.0997 0.0636-0.31937 0.0972-0.5404-0.023-0.64399 0.0172-0.08494-0.19998-0.16428-0.45265-0.29083-0.57587-0.21496-1.2778-0.24728-2.0124-0.28663-0.93905 1e-3 -1.9677-0.33656-2.7071-1.1666-0.56258-0.72803-0.6707-1.6612-0.34892-2.4668 1.205-2.387 4.0624-2.6066 6.031-2.1545 1.0584 0.16207 1.9501 0.35812 2.742 0.16512 0.19162-0.08094 0.40227-0.14331 0.30752-0.16112 0.0506-0.16721-0.0786-0.467-0.16557-0.86318v-2e-6c-0.15637-0.28719-0.2109-0.83471 0.12313-1.4555 0.40832-0.43511 0.91682-0.5666 1.3468-0.47602 0.60063 0.10767 1.0806 0.38748 1.4486 0.67468 1.4668 1.1019 2.3637 2.6432 2.9302 3.8137 0.17121 0.32868 0.28004 0.58762 0.45906 0.75288 0.0511-0.0013 0.0439 0.06577-0.0941 0.06727 0.0344 0.01947 0.0642-0.10562 0.1449-0.257 0.0864-0.21288 0.15653-0.46271 0.22202-0.68275 0.14542-0.55815 0.24867-1.0105 0.61136-1.388 0.19287-0.18802 0.44788-0.20521 0.6394-0.12486 0.64686 0.34514 0.6127 0.73958 0.54374 0.75358z"/>
   <path d="m386.58 71.432c-0.0584-0.01778-0.0964-0.17646-0.10138-0.4819-5e-3 -0.22528 8e-3 -0.49658 0.0434-0.85407 0.0607-0.61355 0.17951-1.4012 0.39175-2.3723 0.16065-0.73666 0.3866-1.6364 0.71634-2.5589 0.20435-0.5921 0.4813-1.3253 1.0016-1.9634 0.70171-0.85185 1.6717-1.8656 2.1589-2.8947 0.18391-0.42791 0.35013-0.85928 0.24807-1.1698-0.0177-0.29885-0.3847-0.56464-0.79925-0.79566-0.53606-0.22742-1.1355-0.62781-1.5351-1.3222-0.24489-0.52975-0.2962-1.0211-0.31988-1.4096v-2e-6c-0.0489-0.43705-0.12855-0.85458-0.30595-1.1889-0.28139-0.59025-0.80686-1.0964-1.4149-1.6031-0.52629-0.42707-1.0187-0.87288-1.517-1.284v-1e-6 -2e-6c0.0663-0.05084 0.15613-0.08856 0.26416-0.10413l1e-5 -1e-6c0.042-0.0061 0.0806-0.0136 0.13353 0.0087l2e-5 -2.6e-5c0.34129-0.6668 0.60839-0.82245 0.66633-0.50673 0.19882 1.3197-0.30965 2.6171-1.2369 3.5142-0.28805 0.30934-0.70377 0.60448-1.2592 0.76352-0.45891 0.10107-0.91293 0.0462-1.3045-0.14029l-1e-5 -2e-6c-0.82161-0.4253-1.3308-1.0567-1.7224-1.5778-0.49376-0.5911-0.92393-1.1694-1.4281-1.5256-0.14848-0.10755-0.31495-0.19587-0.48697-0.25743-0.3042-0.10886-0.62197-0.13277-0.88595-0.03566-0.45059 0.22931-0.86656 0.28304-0.75973 0.38333-0.0836 0.0093 0.0614 0.24339 0.14599 0.63322 0.1599 0.39405 0.32839 0.92838 0.29152 1.5983-0.17 0.91177-0.7376 1.5301-1.3372 1.8422-1.462 0.88896-2.7652 1.4543-3.8306 2.3925-0.3805 0.36428-0.71042 0.68576-0.75815 1.0154-0.11762 0.26533 0.0833 0.67247 0.32744 1.0351 0.36672 0.44588 0.73424 0.99507 0.91414 1.6933v4e-6c0.11154 0.48172 0.0269 0.99013-0.24698 1.4263-0.58991 0.80974-1.3132 1.1405-1.6854 1.5267-0.10561-0.09856 0.0331 0.17593 0.0975 0.47796 0.21556 0.46963 0.59001 0.94431 0.92945 1.4225 0.35827 0.48697 0.7275 0.98941 0.97033 1.6218 0.23888 0.58208 0.0869 1.2698-0.44497 1.7206-0.0305-0.01262-0.0605 0.06776-0.0633 0.12793-0.0109 0.17077 0.0976 0.38951 0.21097 0.6261 0.3831 0.73947 1.007 1.4353 1.4793 1.9668 0.66639 0.74554 1.405 1.4861 1.7954 1.8862h1e-5c0.26482 0.27144 0.46852 0.484 0.60547 0.64024 0.0727 0.08289 0.12621 0.14954 0.15934 0.19945 0.0171 0.02569 0.0288 0.04701 0.0349 0.06389 9e-3 0.02359 7e-3 0.03836-6e-3 0.04469-7e-3 0.0035-0.0178 0.0042-0.0318 0.0023-0.0179-0.0025-0.0413-0.0096-0.0701-0.02108-0.056-0.02245-0.1321-0.06181-0.22762-0.11812v-1e-6c-0.17928-0.10574-0.42787-0.27176-0.73607-0.49745-0.49849-0.36495-1.2475-0.95436-2.0385-1.6962-0.52999-0.49338-1.2345-1.1731-1.756-2.0189-0.16623-0.25354-0.33274-0.5902-0.38229-1.0158-0.0306-0.36716 0.11711-0.74397 0.45293-1.0121 0.12838-0.01 0.1014-0.28809 0.0253-0.50887-0.17661-0.43706-0.5129-0.82403-0.89433-1.3232-0.34636-0.43605-0.77369-0.94725-1.1021-1.5661-0.30214-0.43306-0.40972-1.1571 0.0672-1.8824 0.58415-0.64328 1.2752-0.96329 1.4975-1.3952 0.0671-0.08512 0.0773-0.24518 0.041-0.38331-0.0713-0.35488-0.36205-0.709-0.69021-1.1407-0.46959-0.53867-0.77992-1.3301-0.63089-2.2243 0.20909-0.78696 0.68265-1.3789 1.1861-1.7943 1.2711-1.1226 2.6502-1.7696 4.0041-2.5988 0.33219-0.25638 0.65127-0.50123 0.59706-0.69572 0.0529-0.18825-0.0929-0.49373-0.22159-0.92423l-1e-5 -3e-6c-0.17038-0.33921-0.32179-0.90426-0.16067-1.6361 0.44268-0.91642 1.2046-1.3141 1.7939-1.395 0.95356-0.2567 1.9388-0.05074 2.7005 0.49428 0.0175 0.01254 0.0349 0.02525 0.0522 0.03814 0.72875 0.55433 1.2502 1.2225 1.7084 1.7992 0.46521 0.53 0.78388 1.0188 1.1694 1.1586 0.10241 0.04481 0.21517 0.06829 0.28236 0.04241 0.14429-0.0099 0.32482-0.17009 0.54559-0.35874 0.60578-0.60316 0.99199-1.4386 0.8322-2.1527 0.034 0.17975 0.20274-0.14108 0.63668-0.90966l1e-5 -2.9e-5c0.079-0.0064 0.16527 0.01285 0.24088 0.02624l1e-5 2e-6c0.19431 0.03443 0.35978 0.06252 0.50241 0.07558l1e-5 1e-6c0.52816 0.44891 1.0091 0.89859 1.4881 1.3003 0.6916 0.56469 1.3346 1.2505 1.7591 2.1159 0.26128 0.57024 0.37277 1.1511 0.40902 1.6879v3e-6c0.0472 0.4216 0.0379 0.74176 0.14998 0.92069 0.096 0.2894 0.48958 0.51615 0.90356 0.75738 0.66778 0.30301 1.2496 0.90411 1.4501 1.7316 0.10789 0.77369-0.1217 1.4495-0.41643 1.9536-0.67647 1.2359-1.7278 2.2492-2.4511 3.0238-0.40718 0.42096-0.67972 1.0575-0.93002 1.6203-0.36621 0.84572-0.65381 1.7086-0.87463 2.4091-0.29619 0.941-0.49413 1.6698-0.6518 2.2669-0.0881 0.33403-0.15664 0.60304-0.20848 0.80693-0.0783 0.33133-0.10652 0.46829-0.15647 0.45309z"/>
   <path d="m384.22 42.178c-0.17596-0.06985-0.3913-1.8626-2.6469-3.5563-0.55755-0.39291-1.2042-0.77785-1.932-1.0979-0.44708-0.17754-0.8612-0.39782-1.1597-0.36174-0.029 0.06084 0.0704-0.0026 0.33289-0.16273 0.15274-0.31138 0.20273-0.48052 0.12342-0.52744-0.0374-0.03821 0.0353-0.0032 0.14034 0.13522 0.24267 0.25053 0.57002 0.51979 0.89562 0.9084 0.12362-0.03919 0.27023 0.2613 0.26522 0.91828v1.3e-5c-0.22424 0.38558-0.44311 0.56336-0.62133 0.53551l-1e-5 -1e-6c-0.22744 0.02924-0.38858 0.01947-0.47632-0.0048-1.1836-0.18893-2.1585-0.66762-3.1815-1.1022-1.1185-0.44153-2.306-0.91924-3.3822-0.81519-0.47993 0.03916-0.97042 0.25322-1.2073 0.61498-0.28079 0.35126-0.43145 0.86979-0.62093 1.4648-9e-3 0.0274-0.0175 0.05491-0.0264 0.08254-0.15693 0.5731-0.343 1.252-0.78832 1.9198-0.85045 1.0885-2.1143 1.5058-3.2116 1.5514-1.2252 0.08878-2.3095-0.02706-3.249 0.10209v1e-6c-0.78509 0.0078-1.4306 0.9917-1.8281 1.8343v1e-6c-0.31072 1.0153-0.54893 1.9607-0.0459 2.381v1e-6c0.27762 0.32698 0.37053 0.70012 0.3217 1.0343-0.0584 0.39789-0.20786 0.71681-0.36241 0.9622-0.45767 0.76129-1.0644 1.3623-1.5314 1.7978-0.67507 0.63526-1.3119 1.1267-1.7466 1.4313-0.26375 0.18489-0.47836 0.3186-0.63543 0.40102-0.0832 0.04364-0.15042 0.07295-0.2009 0.08793-0.0259 0.0077-0.0473 0.01157-0.0642 0.01166-0.0231-9e-6 -0.0375-0.0067-0.0434-0.02096-4e-3 -0.0086-4e-3 -0.01949-1e-3 -0.03318 3e-3 -0.01642 0.0114-0.03654 0.0239-0.06029 0.0242-0.04625 0.0654-0.10648 0.12248-0.18021v-1e-6c0.10776-0.13937 0.27171-0.32654 0.48495-0.56198 0.31024-0.34259 0.93328-1.0075 1.4653-1.6396 0.39729-0.4755 0.91022-1.0891 1.2169-1.7292 0.0965-0.21521 0.18379-0.41441 0.17842-0.57075-0.01-0.07626-0.0222-0.15081-0.0447-0.13088-0.88927-1.0007-0.89188-2.4618-0.37132-3.6466v-2e-6c0.35298-1.1435 1.2635-2.4589 2.8515-2.8005 1.1579-0.17873 2.2964-0.09405 3.3359-0.18924 0.84494-0.11218 1.729-0.342 2.0583-0.92975 0.25517-0.32771 0.36272-0.85276 0.56264-1.4715 0.0502-0.18072 0.10559-0.36969 0.17052-0.56316 0.1623-0.48353 0.38142-0.98651 0.72343-1.467 0.6021-0.76784 1.4824-1.178 2.3649-1.2255 1.5483-0.06262 2.9385 0.48372 4.0616 1.0047 1.0957 0.47519 1.9181 0.94605 2.8256 1.1066 0.0749 0.0028 0.0763 0.0172 0.01 0.01761l-1e-5 -2e-6c-0.098-0.04232-0.23048 0.09609-0.43091 0.40405v1.1e-5c0.0618 0.42638-5.5e-4 0.53752-0.0202 0.30991-0.19539-0.26829-0.4969-0.53651-0.79335-0.8773-0.0948-0.08029-0.24583-0.26492-0.37926-0.57763-0.10402-0.11664-0.0642-0.37157 0.13822-0.73726 0.32776-0.23146 0.53741-0.29787 0.6044-0.23611 0.70914 0.04854 1.2549 0.33842 1.647 0.56531 0.78743 0.41034 1.4638 0.88719 2.0295 1.3676 2.4726 1.9845 2.23 4.3986 2.0481 4.3265z"/>
   <path d="m395.2 59.135c-0.0441-0.1581 1.184-1.2028 3.1909-3.0381 0.35271-0.33393 0.84201-0.86051 1.5184-1.1793 0.58882-0.23099 1.1564-0.20946 1.6518-0.16755 1.0286 0.047 2.2106 0.09098 3.3943 0.07771 1.0687-0.01947 2.4005-0.0674 3.7085 0.2902 0.66483 0.15557 1.34 0.65449 1.625 1.5302 0.16586 0.84585 0.0266 1.5805-0.0641 2.197-0.11338 0.97617-0.18527 1.9841-0.12069 2.9733 0.095 0.71991 0.25918 1.4766 0.7229 1.6475 0.39876 0.28028 1.0522 0.27198 1.819 0.33979 0.57079 0.01594 1.2386 0.04368 1.9309 0.24135 0.20701 0.05911 0.41571 0.13323 0.62461 0.2264 1.0846 0.59324 1.6452 1.6551 1.7696 2.6735 0.18097 0.95874 0.13549 2.0676-0.43695 3.066-0.5088 0.75632-1.2318 1.2096-1.9235 1.4551-0.74753 0.2841-1.4546 0.435-2.0733 0.62745-0.61267 0.20926-1.145 0.40515-1.4624 0.75337-0.0528 0.05926-0.1041 0.1353-0.0807 0.14728-0.0121 0.10458 0.10991 0.26807 0.2481 0.48477 0.4152 0.57498 1.018 1.0802 1.5644 1.6842 0.54479 0.50179 1.0786 1.2648 1.0531 2.2527-0.0878 0.55372-0.3763 0.96693-0.70628 1.2279-0.55053 0.457-1.1671 0.71239-1.6938 0.8902-1.2224 0.43691-2.077 0.81982-2.7784 1.4153-0.4794 0.38106-0.75868 0.75509-0.83613 1.156v1e-6c0.25557 0.95117 0.35442 1.5021 0.25519 1.4994-0.0932-0.0025-0.35262-0.49361-0.75914-1.4445 0.0333-0.57001 0.30393-1.1932 0.82983-1.7547 0.73401-0.75034 1.6846-1.305 2.9208-1.8206 0.47604-0.21076 0.97782-0.44326 1.3134-0.77809 0.16227-0.17893 0.30551-0.36406 0.28322-0.50139 0.10168-0.34198-0.35498-0.71775-0.80543-1.2708-0.49838-0.50361-1.1379-1.0076-1.7176-1.7292-0.22059-0.25089-0.44059-0.61471-0.54179-1.1069-0.0555-0.51844 0.10911-0.99322 0.4355-1.3283 0.5989-0.60449 1.3281-0.9479 2.0271-1.1647 0.70066-0.23614 1.3822-0.39257 1.9738-0.63618 0.50697-0.22682 0.98175-0.4918 1.1728-0.86456 0.33574-0.46687 0.29335-1.2168 0.20016-2.0203-0.13695-0.66202-0.42204-1.3354-0.91162-1.5002-0.23275-0.12774-0.51804-0.1914-0.84317-0.23032-0.33974-0.04066-0.71869-0.05409-1.1178-0.08611-0.7531-0.01525-1.6503-0.08769-2.5288-0.56824-1.063-0.73888-1.4517-1.9079-1.452-2.8978-0.0537-1.1267 0.04-2.2225 0.18325-3.246 0.0814-0.72458 0.24592-1.2765 0.13125-1.7018 0.05-0.18737-0.28979-0.36948-0.62586-0.51248-0.99913-0.33071-2.2342-0.31812-3.3264-0.36092-1.2316-0.03939-2.4229-0.1441-3.4626-0.25411-0.52965-0.03585-0.91227-0.1229-1.1947 0.0038-0.43626 0.13887-0.91362 0.59142-1.3488 0.91616-2.2688 1.7352-3.6899 2.551-3.7358 2.3867z"/>
   <path d="m372.46 57.342c-0.0719 0.05621-0.79167-0.15877-0.9355-1.1993-0.0789-0.56439-0.0131-1.0888 0.0967-1.8127 0.0766-0.5388 0.19527-1.2506 0.1732-1.866v-1e-6c-0.0223-0.52629-0.14222-1.1114-0.47105-1.5326-0.14077-0.1858-0.30779-0.41894-0.44211-0.71956-0.16402-0.05219-0.15765-0.37972 0.16413-0.90847 0.42842-0.19352 0.70158-0.19926 0.75056-0.10997 0.20918 0.0478 0.38831 0.10962 0.54645 0.16486 0.40045 0.13417 0.79405 0.28204 1.1479 0.33422 0.29348-0.0043 0.54735 0.04567 0.50641-0.03989 4e-3 -0.11844 0.035-0.03539-0.0319 0.274 0.13109 0.23318 0.14428 0.32374 0.11777 0.24127-0.17186-0.09082-0.49043-0.18238-0.88015-0.44527-0.49274-0.40424-0.71323-1.0134-0.5808-1.6285 0.28312-1.0367 0.94856-1.7786 1.5662-2.3878 0.4651-0.55235 1.12-1.2975 2.1753-1.6476 0.63318-0.09601 1.1651 0.08791 1.4988 0.42025 0.18358 0.09252 0.20139 0.19038 0.0614 0.1111v-1e-6c0.35903-0.0086 0.69021-0.54968 1.2593-1.0872 0.48252-0.56621 1.1193-1.2551 2.0774-1.6578 0.55015-0.18307 1.1187-0.12796 1.5968 0.13716 0.31741 0.1469 0.45282 0.29444 0.44258 0.23312 0.0863 0.04982 0.21675-0.03191 0.3963-0.16706 0.13244-0.09969 0.28852-0.22591 0.47277-0.34927 0.53012-0.45814 1.1088-0.93798 1.8227-1.3108 0.54284-0.29282 1.2098-0.43134 1.9102-0.30907 1.9566 0.50973 3.1209 2.148 4.0036 3.2482 0.5739 0.60376 0.93201 1.1727 1.3952 1.3113 0.0285-0.01656-8e-3 0.01412-0.1501 0.0387v1e-6c-0.0663 0.06428-0.082 0.04904-0.018-0.0091 0.0893-0.16748 0.25243-0.51811 0.66582-0.8925v-2e-6c0.79289-0.41267 1.4962-0.25367 1.8808 0.05574 0.83498 0.52729 1.2062 1.3645 1.2988 2.0918 0.14213 0.87059 0.10422 1.7318 0.0872 2.4364-1e-3 0.76457-0.0577 1.3455 0.12544 1.8563 0.0669 0.17167 0.13219 0.31369 0.22329 0.36617 0.089 0.09306 0.2943 0.10691 0.5049 0.10708 0.70313-0.06986 1.3731 0.1786 1.8064 0.64988 0.41385 0.51914 0.52741 1.1154 0.55315 1.5492v1e-6c-0.14199 1.3579-0.27071 2.0728-0.3765 2.0283-0.0998-0.04192-0.17007-0.75577-0.21124-1.9976v-1e-6c-0.0866-0.35934-0.22875-0.81452-0.52451-1.0614-0.23724-0.25167-0.6716-0.32467-1.1488-0.26577-0.32766 0.05899-0.73184 0.02942-1.1312-0.19288-0.32139-0.21406-0.54138-0.51137-0.65548-0.82507-0.28471-0.7442-0.30007-1.4777-0.3119-2.2062-0.0272-0.72674-0.0247-1.5307-0.17646-2.21-0.14185-0.50897-0.34303-1.0394-0.69495-1.1509-0.31547-0.06615-0.54876-0.2347-0.40748-0.14328-0.0495-0.01611-0.0923 0.21604-0.32247 0.55405-0.0736 0.15773-0.24767 0.34952-0.54542 0.52823v3e-6c-0.39649 0.14896-0.73897 0.14184-0.97746 0.0237-0.94042-0.39491-1.5227-1.0908-1.9926-1.6605-1.0875-1.1137-2.0401-2.5803-3.211-2.7142-0.23907-0.0706-0.56175 0.02731-0.88736 0.18013-0.50727 0.25385-0.98176 0.66802-1.5187 1.1177-0.29793 0.3155-0.76227 0.65778-1.4023 0.81175-0.16613 0.03997-0.34369 0.06714-0.53277 0.07796-0.60073-0.08019-0.97599-0.2966-1.1677-0.43965-0.0896-0.05837-0.21478-0.08174-0.26985-0.03642-0.49705 0.1467-0.9496 0.7012-1.4958 1.2458-0.42179 0.53264-1.0401 1.2217-2.0633 1.5194-0.69505 0.03608-1.1744-0.19904-1.4069-0.48342-0.10342-0.06856-0.16503-0.14948-0.0958-0.092-0.47633 0.06264-0.94149 0.66674-1.5263 1.2059-0.602 0.65895-1.1626 1.1467-1.2774 1.7195-0.0397 0.07969-0.01 0.22684 0.0509 0.23645 0.10032 0.1029 0.37936 0.18131 0.72483 0.38432 0.14131 0.01274 0.33663 0.22418 0.50333 0.64503-0.0232 0.53964-0.17959 0.82805-0.34129 0.87159-0.58663 0.44565-1.1984 0.47077-1.6206 0.33104-0.50468-0.11066-0.94767-0.29579-1.3223-0.44894-0.16326-0.06391-0.29482-0.12066-0.41097-0.15183-0.12709 0.04076-0.0943-0.02506 0.19491-0.10597 0.17236-0.4134 0.26737-0.50109 0.17282-0.38069 0.0489 0.15444 0.16846 0.33234 0.29344 0.53504 0.44214 0.70603 0.55609 1.4826 0.51777 2.1386-0.041 0.7477-0.23002 1.4702-0.36704 1.9978-0.18368 0.73959-0.30585 1.1276-0.31355 1.6341-0.0205 0.83238 0.50862 1.1736 0.43173 1.2337z"/>
   <path d="m384.16 41.694c-0.0519-0.09577 0.52148-0.65497 0.42704-1.615-0.0215-0.33935-0.18069-0.73892-0.25756-1.3086-0.0587-0.50704 0.10534-1.0931 0.58384-1.5191v-1e-6c0.80071-0.66079 1.7589-0.92408 2.8264-1.1632 0.8631-0.22425 1.9751-0.45489 3.1446-0.2331 0.54806 0.13029 1.0051 0.38223 1.3938 0.6554 0.10986 0.08313 0.26532 0.11655 0.35283 0.05251 0.67583-0.2063 1.2618-0.74662 2.0514-1.3242 0.48601-0.39222 1.1397-0.73601 1.9411-0.80589 0.64035-0.02037 1.242 0.18472 1.7173 0.5493 1.0352 0.81826 1.5969 1.9235 2.056 2.9424 0.39168 0.80602 0.70846 1.6117 1.1055 2.3157 0.1095 0.19414 0.2244 0.37892 0.34815 0.55294 0.21877 0.27123 0.37206 0.49578 0.52055 0.52792 0.0254 0.05564 0.18079 0.0054 0.32318-0.05713 1.2654-0.78652 2.9497-0.96489 4.3006-0.09477 0.96421 0.7046 1.4879 1.8275 1.4676 2.9452-0.0191 0.88249-0.28036 1.5078-0.17901 1.9326 0.0947 0.99976 1.1518 1.95 1.9343 2.7823 0.80092 0.79295 1.1796 1.8251 1.1599 2.7832-0.043 1.0286-0.4493 1.8976-0.83075 2.5127-0.48839 0.79794-1.0456 1.3898-1.427 1.7435-0.23097 0.21453-0.42562 0.36744-0.56945 0.46242-0.0763 0.0503-0.13859 0.08452-0.18609 0.10336-0.0243 0.0097-0.0447 0.0152-0.0609 0.01673-0.0225 2e-3 -0.0369-0.0035-0.0433-0.01676-4e-3 -0.0078-5e-3 -0.01802-3e-3 -0.03102 2e-3 -0.01584 9e-3 -0.0356 0.0189-0.05918 0.0199-0.04584 0.0549-0.1068 0.10303-0.18231v-1e-6c0.0911-0.14307 0.22825-0.33675 0.40117-0.58781 0.2771-0.40282 0.72746-1.0629 1.0775-1.8199 0.27034-0.5949 0.55471-1.3777 0.50826-2.1396-0.0232-0.66757-0.36589-1.3868-0.96634-1.9235-0.85901-0.72556-2.0814-1.7916-2.461-3.4006-0.13823-0.89784 0.0923-1.6534 0.0886-2.1919-8.1e-4 -0.62933-0.35808-1.3275-0.90816-1.71-0.59261-0.5253-1.6969-0.27365-2.6473 0.22077-0.47032 0.29167-1.0904 0.37482-1.7236 0.14429v-2e-6c-0.56956-0.27984-0.94708-0.68384-1.1827-1.0632-0.26146-0.37975-0.48413-0.77018-0.68488-1.1636-0.34132-0.66885-0.61131-1.3282-0.89278-1.9304-0.50891-1.0104-0.89167-1.9215-1.5677-2.399-0.23302-0.17187-0.50035-0.28573-0.72638-0.26536-0.34212-0.01598-0.73988 0.2179-1.1423 0.48251-0.73067 0.54639-1.4954 1.1439-2.5084 1.466-0.56397 0.13988-1.1121 0.02398-1.541-0.27425-0.33777-0.24111-0.6213-0.4379-0.90309-0.49603-0.79518-0.22393-1.7728-0.05748-2.6244 0.08308-1.1 0.22198-1.8744 0.31059-2.4945 0.77394-0.24847 0.14912-0.37729 0.46548-0.3713 0.73848 7e-3 0.4447 0.11195 0.93208 0.0793 1.3816-0.13382 1.3906-0.97339 1.7077-1.0283 1.6065z"/>
   <path d="m424.28 83.663c-2e-3 -0.0014-8e-3 -0.0045-0.0201-0.0063-0.0145-0.0022-0.0376-0.0028-0.0738 0.0028-0.0451-0.01669-0.10466-0.04753-0.17785-0.09294-0.13263-0.08214-0.31369-0.21448-0.5281-0.39746-0.30785-0.26152-0.80686-0.72373-1.2071-1.3361-0.2662-0.33556-0.58383-0.97645-0.24895-1.7206 0.5739-0.75341 1.5421-0.88342 2.3271-0.75932 0.86381 0.02202 1.8168-0.28495 2.6563-0.91552 0.71398-0.53815 1.3351-1.2885 1.7894-2.1908 0.33996-0.71061 0.61854-1.4939 0.54026-2.21-0.058-0.41123-0.28257-0.87334-0.57306-0.86927-0.75544-0.19229-1.8399-0.3166-2.8474-0.96863-1.2122-0.89737-1.8299-2.1277-2.4696-3.1739-0.16578-0.25976-0.31993-0.52733-0.46218-0.80187-0.68167-1.3157-1.0605-2.7338-1.1732-4.1314-0.12627-1.3019-0.0575-2.3819-0.50935-3.2061 0.0118-0.04568-0.10256-0.10312-0.22793-0.15966-0.21232-0.07917-0.50444-0.07567-0.83032-0.06776-0.80479 0.03515-1.6942 0.25069-2.5275 0.41483-0.58142 0.1709-1.3808 0.4113-2.3019 0.1201-0.47772-0.27106-0.67847-0.70262-0.60305-1.1359 0.13854-0.57482 0.43116-0.97552 0.66527-1.2542v-1e-6c0.23176-0.33564 0.42435-0.603 0.43624-0.85444 0.0246-0.12266-0.0232-0.27646-0.10776-0.36759-0.31493-0.42017-1.1275-0.51902-1.7377-0.63395-0.9342-0.14141-1.9365-0.15848-2.4973-0.17381-0.38982-0.01048-0.69-0.0182-0.90775-0.03431-0.1158-0.0085-0.20577-0.01932-0.26826-0.03332-0.0323-0.0072-0.0574-0.01536-0.075-0.02447-0.0236-0.01228-0.034-0.02577-0.0308-0.04186 2e-3 -0.01004 9e-3 -0.02029 0.0216-0.0316 0.0149-0.01348 0.0373-0.02782 0.0671-0.04292 0.0578-0.02929 0.14321-0.06131 0.25559-0.09511 0.20841-0.0626 0.5132-0.1323 0.90276-0.1966 0.59473-0.09861 1.557-0.21694 2.6137-0.16676v1e-6 -1e-6c0.63127 0.0058 1.6 0.06865 2.3859 0.74208 0.30673 0.29865 0.48765 0.71892 0.4686 1.1814-0.0496 0.5757-0.2874 1.0648-0.57249 1.4539v1e-6c-0.19709 0.32616-0.40486 0.59189-0.40389 0.78932 0.013-0.08192-0.0262-0.1182-0.16151-0.25787 0.288 0.17393 0.78847-0.12881 1.5613-0.25649 0.79584-0.19436 1.7343-0.44935 2.7224-0.53247 0.39154-0.03938 0.85069-0.0352 1.3446 0.09692 0.43216 0.11024 0.84726 0.40341 1.1296 0.88516 0.62374 1.2737 0.63877 2.5635 0.72636 3.7513 0.12525 1.3613 0.53093 2.7392 1.2576 3.9618 0.0517 0.08695 0.10482 0.17282 0.1594 0.25756 0.76337 1.143 1.2203 2.2213 2.0402 2.7593 0.49782 0.41074 1.4421 0.48802 2.3768 0.78891 1.0307 0.38955 1.5728 1.31 1.6038 2.2115v1e-6c0.0461 1.1236-0.31871 2.136-0.77744 2.9457-0.58148 1.0694-1.3792 1.9399-2.2848 2.5587-1.0921 0.7494-2.3269 1.0421-3.4364 0.94658-0.80064 0.02881-1.4058-0.16483-1.5382 0.19031-0.19394 0.08953 0.0158 0.55028 0.13969 0.90172 0.26118 0.54752 0.67808 1.0949 0.90024 1.3963v1e-6c0.16473 0.22286 0.29029 0.3905 0.37779 0.52176 0.0463 0.06963 0.0799 0.12626 0.0995 0.16946-3e-3 0.03682 2e-5 0.05995 4e-3 0.07416 3e-3 0.01389 8e-3 0.01926 9e-3 0.02028 1.3e-4 1.37e-4 1.2e-4 1.31e-4 -2e-5 2.1e-5 -1.9e-4 -1.45e-4 -5.1e-4 -3.73e-4 -9.7e-4 -6.65e-4z"/>
   <path d="m403.62 109.85c4e-3 5e-3 0.0244 0.0234 0.087 0.03 0.0434 0.0242 0.0872 0.05 0.16028 0.0842 0.15627 0.078 0.34674 0.14711 0.66455 0.19133 0.94203 0.1322 1.7643-0.0514 3.496-0.71115 0.62097-0.24793 1.2465-0.73396 1.6191-1.4308 0.28292-0.50953 0.42654-1.0983 0.59592-1.8042 0.0526-0.23452 0.1143-0.51151 0.22724-0.80528 0.0396-0.20119 0.21711-0.46674 0.59411-0.68804v-1e-5c0.47201-0.12233 0.83844-0.0375 1.0246 0.12816 0.40442 0.23792 0.71888 0.53158 0.99492 0.81144 0.53547 0.55752 1.4278 0.78112 2.378 0.78297 0.96613-0.0141 1.9608-0.27239 2.9582-0.69082 0.77068-0.33963 1.5385-0.72134 2.0514-1.2811 0.12845-0.1925 0.24602-0.27112 0.18877-0.24255 0.0734 0.21348 0.0507 0.27754 0.0872 0.25858v-1e-5c-0.98534-0.41674-2.1109-0.99834-2.9415-2.0369-0.35903-0.43873-0.58904-1.049-0.53759-1.749 0.14131-0.81852 0.5905-1.436 1.0921-1.8332 0.37867-0.28611 0.55675-0.88093 0.71605-1.5378v-2e-6c0.165-0.80741 0.20261-1.6649 0.30371-2.609 0.0726-0.72735 0.18109-1.4919 0.39497-2.2555 0.0703-0.25105 0.15179-0.50113 0.24672-0.74934 0.41652-1.074 1.1332-2.0183 2.0735-2.6835 0.44213-0.33272 1.0302-0.56175 1.7075-0.55556 0.56661 0.04224 1.0556 0.25844 1.427 0.56502 0.73381 0.60833 1.1801 1.3677 1.5101 2.0428 0.13217 0.25221 0.22174 0.4632 0.3169 0.60742l1e-5 3e-6c0.1464 0.06513 0.0211 0.01477-0.34609-0.2073l-2e-5 -1.2e-5c-0.81005 0.28262-1.0976 0.41559-0.85318 0.48695v-1e-6c0.0493-0.13992 7e-5 -0.41183-2e-3 -0.78159-0.029-0.76962-0.0805-1.5605-0.12634-2.3201-0.1117-1.5765-0.52572-3.0305-1.4224-4.04v-1e-6c-0.66439-0.79043-1.6341-1.3309-2.5868-1.7361-0.75475-0.30145-1.5941-0.47532-2.4087-1.0841-0.33231-0.24111-0.55636-0.64317-0.58013-1.13 0.0477-0.61561 0.32183-1.066 0.57544-1.3684 0.2133-0.31143 0.37245-0.6117 0.35166-0.87834 0.0113-0.23202-0.12563-0.49116-0.29762-0.7134-0.52576-0.67917-1.5022-1.08-2.2393-1.3863-2.8231-0.7615-4.4014-1.2583-4.302-1.3811 0.0951-0.11757 1.7193 0.12254 4.5149 0.6477 0.7961 0.23702 1.9096 0.62029 2.7457 1.486 0.30419 0.31823 0.54606 0.76093 0.59618 1.2955 0.0223 0.5835-0.17579 1.1232-0.48386 1.5529-0.1797 0.31358-0.36921 0.57746-0.32684 0.75224-0.027 0.03122 0.0596 0.11254 0.15244 0.19515 0.48819 0.38261 1.2817 0.49607 2.1652 0.84427 1.0785 0.4002 2.2259 1.0158 3.1388 2.0036v2e-6c1.1591 1.3082 1.7418 3.0424 1.8635 4.8397 0.059 0.7565 0.12337 1.5553 0.16482 2.3536 0.0263 0.27241 0.0701 0.66804-0.0166 1.1644v5e-6c0.22737 0.15053-0.0948 0.40087-0.98371 0.66411l-2e-5 -1.3e-5c-0.47185-0.24785-0.65159-0.41396-0.56369-0.43962v-1e-6c-0.17685-0.2776-0.29154-0.52593-0.39392-0.72235-0.34858-0.62289-0.66864-1.2162-1.1147-1.5343v-1e-6c-0.19166-0.1356-0.38807-0.23886-0.5444-0.22931-0.19627-0.03331-0.45957 0.10557-0.74169 0.28165v1e-6c-0.66894 0.46528-1.1942 1.1747-1.5083 1.9772-0.15991 0.40165-0.27193 0.83302-0.3575 1.2869-0.0802 0.42542-0.13664 0.86786-0.18737 1.315-0.0938 0.88618-0.14274 1.7938-0.33637 2.7527v3e-6c-0.14059 0.82016-0.49499 1.7019-1.2262 2.3874-0.32169 0.32362-0.60488 0.60865-0.59266 0.85731-0.0528 0.16204 0.0713 0.41134 0.22797 0.65425 0.49041 0.70739 1.4258 1.163 2.3455 1.6178h1e-5c0.41862 0.15582 0.71719 0.5899 0.74884 1.2175-0.11041 0.55644-0.3659 0.91467-0.6022 1.0981-0.7731 0.76492-1.7042 1.2286-2.5599 1.5556-1.131 0.45394-2.3071 0.71339-3.4782 0.70385-1.2034 6e-3 -2.3903-0.39937-3.2267-1.2437-0.2689-0.27698-0.48806-0.51607-0.72848-0.65961-0.14815-0.026-0.13638-0.0956-0.0139-0.0797 0.0611-0.0849 0.0755-0.03-0.0165 0.0795-0.0831 0.17754-0.14163 0.4064-0.21256 0.65004-0.19695 0.71197-0.41638 1.3884-0.79966 2.0189-0.55329 0.88736-1.3804 1.4385-2.1784 1.6907-1.7624 0.57277-2.8995 0.63098-3.8402 0.33608-0.34244-0.1069-0.56566-0.26225-0.69803-0.40069-0.0664-0.0704-0.106-0.13212-0.12624-0.17853 7e-3 -0.06-2e-3 -0.0859-5e-3 -0.0909-3.3e-4 -7.4e-4 -2.8e-4 -6.6e-4 1.5e-4 -1.1e-4 1.7e-4 2.2e-4 3.8e-4 4.8e-4 6.3e-4 7.7e-4z"/>
   <path d="m360.79 47.805c0.0134 0.21891-2.4809 1.9807-6.2146 0.31461h-1e-5c-1.2277-0.56667-2.2732-1.6224-3.4856-2.0839-0.23109-0.07746-0.49224-0.10552-0.61602 7.32e-4 -0.21843 0.09637-0.40811 0.36865-0.66466 0.69669-0.53387 0.76186-1.1319 1.8676-2.1208 2.7071-0.9535 0.59602-1.9442 0.48283-2.5991 0.1935-0.88409-0.25867-1.6892-0.61937-2.4714-0.87784-0.39043-0.08483-0.73739-0.21124-0.99681-0.26306-0.19117-0.03819-0.33254-0.03495-0.41035 0.05439-0.0336-0.02065-0.0819 0.09464-0.1409 0.22327-0.11021 0.30114-0.0747 0.71769-0.0404 1.18 0.10772 0.94106 0.19886 1.9203 0.0251 2.9499-0.0948 0.58581-0.3809 1.1591-0.86425 1.604-0.4566 0.38184-0.89158 0.59897-1.2041 0.81519-0.54624 0.37723-1.013 0.86519-1.404 1.3817-0.47637 0.56389-0.5065 1.4796-0.40213 2.2506 0.15787 1.0522 0.6237 2.079 1.0235 2.8795 1.4566 2.2595 2.2441 3.6413 2.069 3.7018-0.16926 0.05852-1.2123-1.1264-2.8538-3.1993-0.51275-0.80222-1.1088-1.8848-1.4054-3.1537-0.23377-0.95586-0.21909-2.1832 0.47893-3.2596 0.43107-0.6313 0.97771-1.2439 1.6569-1.7553 0.42181-0.31626 0.82246-0.52344 1.071-0.76254 0.18599-0.14448 0.29471-0.43267 0.35426-0.75418 0.12971-0.75469 0.0171-1.581-0.0834-2.5286-0.0738-0.51757-0.0968-1.1366 0.0836-1.8002 0.11405-0.4459 0.42276-0.87744 0.93106-1.1715 0.67466-0.26344 1.3097-0.25639 1.8473-0.13736 0.28733 0.06362 0.54382 0.15856 0.76005 0.25803 0.88841 0.29775 1.6688 0.65746 2.415 0.88073 0.64255 0.0944 1.1489 0.32708 1.2128 0.10638 0.70156-0.51409 1.2561-1.5271 1.9175-2.3767 0.27009-0.38211 0.64419-0.78653 1.1836-1.0779 0.62607-0.27746 1.2651-0.23411 1.775 0.0068 1.552 0.72553 2.4723 1.8013 3.4467 2.3295 3.0734 1.724 5.7126 0.44183 5.7265 0.66706z"/>
   <path d="m380.5 77.287c-0.10909 0.14931-2.6922-0.3999-6.4278 1.0385-1.6559 0.64646-3.738 1.8427-4.9301 3.8356-0.26721 0.51464-0.66343 1.2679-1.5123 1.7376-0.6476 0.15188-1.1686-0.05948-1.4035-0.46222v-4e-6c-0.23548-0.28758-0.25887-0.48466-0.23141-0.37854v1e-6c0.15371 0.04512 0.22987 0.06518 0.275 0.02888v-1e-6c-0.0427 7.54e-4 -0.11438 0.11371-0.26015 0.2651-0.24026 0.33103-0.45971 0.63931-0.43696 0.88731-0.0286 0.15388 0.0898 0.36268 0.24573 0.556 0.5873 0.71195 1.6317 1.0251 2.7894 1.4787 1.1734 0.4211 2.2564 1.2658 2.863 2.5035 0.4961 1.0742 0.70586 2.1596 1.103 3.0467-0.0455 0.14084 0.286 0.20257 0.60182 0.2291h1e-5c0.57216-0.0068 1.2266-0.19018 1.9938-0.29513 0.77357-0.13022 1.6897-0.14605 2.6034 0.21959 0.17243 0.08444 0.3342 0.18016 0.48556 0.2855 0.83039 0.57788 1.3355 1.4362 1.5735 2.2753 0.55605 1.6014 1.0582 3.1118 2.1685 3.8554 0.76148 0.60976 1.9807 0.72626 3.1748 0.95601 0.35544 0.10132 0.81269-0.11722 1.1654-0.41903 0.4204-0.37042 0.76886-0.9255 1.1597-1.4831 0.24976-0.43902 0.64095-1.0326 1.3924-1.4212 0.40023-0.15719 0.81561-0.13524 1.1742 0.04476 0.45666 0.26151 0.74384 0.60039 0.92323 0.89476 0.38891 0.54464 0.69999 1.024 1.1075 1.2977 0.13819 0.05265 0.28448 0.15687 0.18111 0.10478 0.23245-0.11204 0.31634-0.58144 0.48913-1.0705 0.2606-0.9339 0.39036-1.9482 0.50345-2.8618 0.0884-0.91392 0.10407-1.7004-0.25125-2.2875-0.18831-0.36329-0.56579-0.63398-0.94941-0.81493-0.26479-0.09875-0.68078-0.17493-1.0759-0.55066v-3e-6c-0.18887-0.25951-0.21499-0.52778-0.12687-0.73924 0.13357-0.32859 0.33706-0.5548 0.49996-0.71761 0.75586-0.80768 0.89813-1.6111 0.69062-2.1727-0.4583-0.67065-0.67412-1.0504-0.59465-1.0675 0.0731-0.01581 0.39177 0.27643 0.93802 0.85875 0.33094 0.66182 0.35338 1.7924-0.49395 2.8463-0.13843 0.18736-0.28224 0.35595-0.30975 0.50078 0.0109 0.01594-2e-3 0.02354-0.021-0.05481 0.0764 0.12555 0.39926 0.10718 0.82531 0.29272 0.52482 0.19383 1.0664 0.55043 1.4421 1.1213 0.52102 0.86464 0.61871 1.8882 0.51561 2.8938-0.0706 0.9288-0.16709 1.9959-0.41782 3.0546-0.0808 0.49863-0.26798 1.1783-0.85905 1.7457-0.62399 0.38329-1.2874 0.32886-1.7211-0.0134-0.64914-0.45395-1.0941-1.0382-1.476-1.5888-0.18557-0.2242-0.31685-0.41531-0.43759-0.44504-2e-3 -0.0018-0.0271-0.0048-2e-3 0.0011-0.23334 0.03929-0.39916 0.46619-0.7666 0.94347-0.35377 0.54739-0.75775 1.1885-1.3434 1.7563-0.59026 0.57762-1.4513 0.93619-2.4039 0.82184-1.1543-0.15779-2.5765-0.33849-3.83-1.1835-1.5489-1.1766-2.2665-2.9558-2.7599-4.6201-0.26839-0.71879-0.6416-1.4189-1.1973-1.6019-0.0734-0.03747-0.15188-0.06745-0.23495-0.09106-0.42217-0.11995-0.96118-0.07427-1.5261-0.01527-0.6441 0.09058-1.3421 0.27474-2.1716 0.30137-0.76732 0.0522-1.5848-0.33047-2.0569-1.1663-0.47816-1.1154-0.66977-2.1829-1.0627-3.0286-0.34441-0.81616-1.1397-1.4246-1.9994-1.7603-1.148-0.40447-2.3936-0.89021-3.3371-1.9339-0.36149-0.4-0.58239-0.95077-0.56456-1.5653 0.0815-0.72206 0.41899-1.2814 0.7863-1.6721 0.14007-0.18818 0.37021-0.41437 0.72333-0.60031v-3e-6c0.25482-0.13529 0.5851-0.13558 0.9395 0.02213l1e-5 4e-6c0.46599 0.35187 0.62441 0.6843 0.66456 0.80658 0.0315-0.0017 8e-3 0.07313-0.21182 0.02552 0.35347-0.08637 0.6188-0.68345 1.0227-1.2267 1.5104-2.2693 3.8354-3.467 5.6564-4.0388 4.2078-1.3406 6.8398-0.34012 6.7268-0.18533z"/>
   <path d="m386.56 74.436c7e-3 -0.1713 1.9499-0.99326 2.8221-3.8882 0.18226-0.62121 0.32283-1.3291 0.53547-2.1086 0.0969-0.46101 0.27808-1.1037 0.83847-1.628 0.75504-0.51249 1.5578-0.48795 2.1803-0.43903 0.62657 0.06099 1.2354-0.48345 1.7982-1.1625 0.81852-1.0993 1.9726-2.2587 3.5539-2.8178l1e-5 -1e-6c1.521-0.47817 3.2085-0.15007 4.5468 0.78536 0.305 0.17671 0.65163 0.49376 0.90176 1.0051v4e-6c0.15583 0.42412 0.13699 0.85294-0.0371 1.2185-0.3697 0.69461-0.86981 1.0852-1.2088 1.3762-0.29807 0.37907-0.61912 0.60393-0.50869 0.68682-0.0287 0.0305 0.0577 0.13293 0.15737 0.28453v1e-6c0.21317 0.2669 0.5563 0.48756 0.94794 0.73385 0.62541 0.36306 1.2406 0.83864 1.7434 1.4492 0.23743 0.28828 0.44812 0.60458 0.6229 0.95064 0.39034 0.8309 0.48749 1.7383 0.35206 2.5826-0.259 1.4599-0.99219 2.5491-1.3745 3.549v-1e-6c-0.0546-0.08119 0.0157-0.0011 0.0608 0.05889 0.13221 0.12213 0.46088 0.30785 0.81348 0.71577 0.18841 0.21515 0.29017 0.53379 0.26807 0.92429-0.10403 0.45688-0.29938 0.75172-0.48717 0.89749-0.83285 0.82088-1.8372 1.2746-2.653 1.6599-0.51271 0.25581-0.97418 0.49-1.36 0.7833-0.19199 0.18447-0.34577 0.26242-0.31969 0.29816v-1e-6c-2e-3 -0.09605 7e-3 -0.11538-0.01-0.1223 0.0271 0.06279 0.14153 0.14815 0.28911 0.28611 0.15579 0.13011 0.3453 0.2985 0.53186 0.5362 0.20234 0.25023 0.3166 0.59361 0.29915 0.9875-0.26466 1.2654-1.2864 1.8688-1.9329 2.189-1.1467 0.75524-2.4516 1.0431-3.6289 0.82744-1.1664-0.24159-2.0791-0.89804-2.7053-1.4836-0.76946-0.71311-1.3853-1.5512-1.7274-2.035v-1e-6c-0.22399-0.31535-0.39116-0.56556-0.52402-0.74882v-1e-6c-0.25009-0.27585-0.31791-0.33254-0.29484-0.38297 0.0283-0.06194 0.23922-0.059 0.49745 0.18625 0.21261 0.16651 0.3959 0.34918 0.68423 0.64178v1e-6c0.38804 0.39286 1.1399 1.1866 1.8679 1.7444 0.62122 0.47104 1.4606 0.9907 2.3669 1.0983 0.88694 0.13184 1.8833-0.18049 2.8067-0.822 0.61272-0.53095 1.4351-0.93006 1.3192-1.3247 0.0156 0.01175-0.0206-0.02813-0.0562-0.0874-0.0631-0.08718-0.1913-0.18082-0.35395-0.31959-0.1447-0.10886-0.33895-0.27165-0.53443-0.52719-0.20692-0.27879-0.28242-0.65456-0.17803-1.0697v-5e-6c0.20134-0.4914 0.50357-0.79755 0.75975-0.96006 0.50224-0.39455 1.0345-0.69148 1.5602-0.96234 0.83352-0.45131 1.7089-0.83974 2.2295-1.4214 0.0736-0.12615 0.12816-0.14055 0.0744-0.06073 0.0116 0.13099 0.01 0.18705 0.0349 0.19543-0.0441-0.09498-0.31606-0.21298-0.6617-0.53062-0.43352-0.37998-0.64315-0.99968-0.46762-1.7003l1e-5 -5e-6c0.44577-1.2419 1.1486-2.254 1.2648-3.2554 0.081-0.57511 0.0244-1.1774-0.22255-1.6662-0.16964-0.37809-0.44962-0.71651-0.79573-1.026-0.2901-0.25941-0.62385-0.49598-0.96951-0.71498-0.4481-0.26123-0.92002-0.5952-1.3308-1.0686v-2e-6c-0.26947-0.28636-0.47562-0.71263-0.51897-1.2497 0.085-0.93646 0.57342-1.5392 1.0036-1.8486 0.42816-0.43373 0.81702-0.65839 0.8864-0.90203 4e-3 -0.01396 0.0173-0.03378 0.015 0.0058 0.0116-0.06833-0.15435-0.17049-0.35713-0.34713-1.0006-0.69212-2.246-1.007-3.2465-0.66516v1e-6c-1.1768 0.3381-2.1677 1.3173-2.9713 2.2711-0.67137 0.88303-1.6833 1.5463-2.8605 1.5483-0.72142 0.0048-1.2362-0.15868-1.451 0.10733-0.2535 0.12859-0.37102 0.60541-0.55365 1.0622-0.24364 0.71948-0.43861 1.4359-0.6847 2.0894-1.2033 3.2702-3.6556 3.7885-3.6481 3.6107z"/>
  </g>
  <circle transform="rotate(180.62)" cx="-385" cy="-73.657" r="4.9081" fill="#d4aa00" fill-rule="evenodd" stroke="#421212" stroke-width="1.262"/>
 </g>
</svg>
