<?xml version="1.0" encoding="UTF-8"?>
<svg version="1.1" viewBox="0 0 571.5 364.33" xmlns="http://www.w3.org/2000/svg" xmlns:cc="http://creativecommons.org/ns#" xmlns:dc="http://purl.org/dc/elements/1.1/" xmlns:rdf="http://www.w3.org/1999/02/22-rdf-syntax-ns#">
 <style/>
 <defs>
  <linearGradient id="linearGradient956" x1="26.602" x2="262.67" y1="157.28" y2="153.63" gradientTransform="matrix(1.6422 0 0 1.6422 47.341 33.443)" gradientUnits="userSpaceOnUse">
   <stop stop-color="#723940" offset="0"/>
   <stop stop-color="#723940" offset=".13442"/>
   <stop stop-color="#b76e78" offset=".29043"/>
   <stop stop-color="#723940" offset=".41363"/>
   <stop stop-color="#723940" offset=".59089"/>
   <stop stop-color="#b76e78" offset=".7141"/>
   <stop stop-color="#723940" offset=".85594"/>
   <stop stop-color="#723940" offset="1"/>
  </linearGradient>
 </defs>
 <metadata>
  <rdf:RDF>
   <cc:Work rdf:about="">
    <dc:format>image/svg+xml</dc:format>
    <dc:type rdf:resource="http://purl.org/dc/dcmitype/StillImage"/>
    <dc:title/>
   </cc:Work>
  </rdf:RDF>
 </metadata>
 <path d="m285.43 0.039563c-36.886 0.0145-98.784 1.5772-153.47 7.508-27.344 2.9654-52.711 6.8891-73.538 12.975-10.414 3.0427-19.717 6.4662-28.453 11.965-10.687 6.6661-17.733 15.4-20.01 24.98-0.29087 0.8502-0.39181 3.1837-0.5901 4.9468-0.21193 0.67366-0.39486 1.2753-0.59009 1.9533-4.726 14.118-8.6546 33.834-8.7686 56.23-0.0891 17.502 1.7084 37.462 11.975 54.595-0.11136 0.19934-0.30607 0.46726-0.40679 0.65286-1.9244 3.5465-2.1862 5.1922-2.5161 6.5212-0.65968 2.6579-0.71486 3.7964-0.83618 5.007-0.24262 2.4212-0.31633 4.4479-0.3867 7.0008-0.14073 5.1058-0.15899 11.853-0.1155 20.513 0.087 17.319 0.44413 42.046 0.81609 72.692 0.0805 6.6048 2.6506 12.936 7.1966 17.728 33.994 35.833 87.716 46.645 139.54 52.893 51.828 6.2479 103.25 5.6493 129.73 6.0892 0.29041 5e-3 0.58089 5e-3 0.87133 0 26.495-0.4405 77.913 0.15991 129.74-6.0867 51.823-6.2467 105.54-17.068 139.56-52.885 4.6066-4.8501 7.1856-11.277 7.2092-17.966 0.11354-33.073-0.17068-59.586-0.67799-78.118-0.25366-9.266-0.55285-16.478-0.9316-21.904-0.18936-2.7131-0.36666-4.8708-0.7307-7.3573-0.18203-1.2432-0.30117-2.4098-1.0672-5.002-0.0148-0.0504-0.0429-0.13188-0.0577-0.18329 5.5578-8.9779 9.1552-19.19 10.358-30.06 0.89683-8.1047 2.5878-23.05 2.1721-39.607-0.38367-15.278-1.8999-32.334-10.695-48.795-3.634-11.649-12.264-19.099-19.787-23.835-8.7358-5.5-18.039-8.9222-28.453-11.965-20.827-6.0858-46.194-10.011-73.541-12.977-54.693-5.9312-116.6-7.4935-153.51-7.508h-0.0201z" color="#000000" color-rendering="auto" dominant-baseline="auto" fill="#fff" fill-opacity=".99597" image-rendering="auto" shape-rendering="auto" solid-color="#000000" stop-color="#000000" style="font-feature-settings:normal;font-variant-alternates:normal;font-variant-caps:normal;font-variant-east-asian:normal;font-variant-ligatures:normal;font-variant-numeric:normal;font-variant-position:normal;font-variation-settings:normal;inline-size:0;isolation:auto;mix-blend-mode:normal;paint-order:normal;shape-margin:0;shape-padding:0;text-decoration-color:#000000;text-decoration-line:none;text-decoration-style:solid;text-indent:0;text-orientation:mixed;text-transform:none;white-space:normal"/>
 <g transform="matrix(1.2857 0 0 1.2857 -81.915 -185.43)" stroke-width="1.0001">
  <path d="m90.648 199.08s-15.225 51.747 9.912 78.967c4.896 5.3018 19.201 8.5998 57.735-14.046l-9.9102 34.862s20.641-4.2753 40.948-27.628l-5.1566 23.821 37.822-22.845s-6.9342 28.764 3.5537 25.638c17.914-5.3395 52.798-25.13 52.798-25.13s-6.8692 23.434-1.742 23.849c9.751 0.79024 20.526-9.6344 20.526-9.6344l0.76149 9.6459 51.588-28.896-5.295 28.828 31.127-15.163c24.392 9.8189 53.197-18.119 53.197-18.119s-10.903 32.776-2.9436 27.914c41.746-25.498 38.704 8.7904 56.322-33.29 2.628-28.706-1.1545-37.135-5.6202-63.471-11.384-35.305-382.56-38.342-385.62 4.6976z" fill="#ebbec4"/>
  <path d="m419.92 243.8s-5.2345 3.1362-9.3417-0.67306c0 0 0.19073 5.2382-5.8223 4.846l-2.5491 0.98846s0.55268 4.79-2.7351 5.4003c-3.2878 0.61034-7.8421-1.366-7.8421-1.366s-2.606 2.2263-0.33585 7.6868c0 0-7.776 3.9753-8.6828-3.5223l-3.7801 1.5477-3.2608-7.4565-2.427 2.6548s-4.6745-1.5779-4.6538-8.4511c0 0-2.9931 5.413-5.7815 1.0075s-0.92531-3.4317-0.92531-3.4317l-10.008 0.36586 1.6184-10.581s-6.6139-1.003-6.4783-1.9863c0.47587-3.4519 5.9824-12.534 5.9824-12.534s1.2426-3.8372-7.1497-3.565c0 0-3.3375-1.8899 1.4859-6.6746 0 0-5.3358-6.0339-2.8945-8.2871 2.4413-2.2533 2.8143-1.5795 2.8143-1.5795l0.282-6.583 6.428 2.0509s-0.51204-4.0331 3.0441-3.0467c3.5562 0.98635 5.8899 2.8188 8.6791 1.576 0 0-1.0428-4.1213 2.1434-4.8738 3.1862-0.75244 4.7515-0.39227 6.0411-2.2942 1.2897-1.902 1.5205-4.236 5.6712-2.2568 4.1508 1.9793 2.5158-0.58881 2.5158-0.58881s4.4453 1.6011 4.6852 4.2503l0.0576-3.3068s4.287-2.3069 7.7562 0.19458c1.3e-4 2e-3 3.5626-2.5952 3.5626-2.5952l4.5717 6.4163s4.8858-1.3664 5.1142 2.3565c0.22817 3.7228 2.4081 4.3218 2.547 5.6656 0.13873 1.3439-1.4653 4.28-1.4653 4.28l1.1001 0.67357s8.1237-0.75344 4.0465 3.0511c0 0 3.7811 0.66747 5.594-0.27185 1.8128-0.93931 0.85579 9.2389 6.6293 11.233 4.127 1.4254-3.1027 6.9694-3.8004 6.4438-0.69766-0.52563-3.7106 0.57635 0.0497 3.721 3.7604 3.1446 0.62232 6.1445 0.62232 6.1445s-0.63646-1.5448-1.9854-0.94567c-1.3489 0.59915-4.1031 10.58-4.1031 10.58z" fill="#fff"/>
  <path d="m397.28 179.45c-1.7664-0.21571-2.5721 1.3566-3.9369 1.866-4.458-2.881-9.0784-0.61861-7.6378 2.6194-1.6319-1.5552-2.5469-3.4278-4.8587-3.267-0.27965 0.29331-0.49927 0.56278-0.6874 0.81735 1.5398 0.71697 2.795 0.45974 2.3662 2.2978 1.1668 0.60421 2.1491 1.5566 2.9212 2.6306-0.2698 0.26048-0.70305 0.0855-0.92002-0.0114-1.8147-0.795-2.8198 2.4524-4.1519 2.305-3.8795-1.5837-5.7073 1.1695-4.9128 3.8579 0.93238 0.32743 1.2854 0.99 1.2822 1.7887-1.1045-0.84669-1.6522-1.4261-3.0084-0.94451-1.1287 1.0008 0.88449 1.8087 0.88682 2.956-1.4367-0.61202-1.2652 0.83718-1.4913 1.6106-0.94996-1.3448-1.7399-2.8304-2.8178-3.6944-1.3373-1.9111-3.2005-0.65543-3.1855 1.9299 0 7e-5 6e-5 0 6e-5 0-1.9555 0.47637-1.4501-0.53842-3.6439-0.40968 1.0668-0.68397 2.103-1.5539 2.7341-2.5027 1.3387-1.4453-2.3093-3.6781 1.3154-5.0142 3.9081-1.0476 4.047 0.51593 6.3647-1.7735 0.7248-0.90728 0.74872-2.1632 1.2713-3.0799 1.7895-0.6116 4.0364 1.062 6.1246 1.3944 2.5534-1.4449 1.3977-3.4239-1.1324-3.3398-7.1107-3.9566-8.4514-0.17197-8.8188 3.2274 0.10337 0.88582-2.0866 0.14961-4.2321 0.70279-2.7955 0.96156-4.7135 3.4744-2.908 6.4903-3.741 0.24547-4.6796-1.8025-7.1843-3.0755-3.2687-0.49713-3.1219 1.691-4.8599 3.038-1.8693-0.47999-3.6827-1.6204-5.5452-1.0134-2.2701 1.0544-0.90469 5.6464-1.2509 5.7038-5.6543 3.7237-4.3146 8.4181 0.7644 10.676-1.739 1.1946-3.1703 3.5255-3.2054 6.0188 0.11662 2.386 0.18992 3.8577 3.3508 2.7868 1.5854-0.39789 3.9067 0.23082 4.5208 0.83613-1.3656 2.2806-3.3381 3.4587-2.6497 5.3991-1.2112 2.5689-5.0826 8.1551-1.5977 10.659 2.3019 1.2156 5.9459 0.71725 5.4022 2.6412-0.92299 2.5796-2.2368 5.5733-1.1234 7.8054 3.0002 2.6167 5.5762 0.41003 8.6096 0.29304 0.89572 7.1111 4.6699 7.3141 8.7277 4.2496-0.60322 2.9828 1.756 5.2203 3.6543 6.746 1.8503 0.3705 2.0813-0.71112 2.7692-1.9299h-3.1e-4c-0.22034 3.5679 3.4724 8.8701 6.8671 5.2102l9e-5 6e-5c1.9681 4.3098 3.8528 5.2045 7.7264 4.7585 5.7387-0.90381 2.3632-5.2355 2.2096-8.2244 2.609 0.0436 4.2638 1.6718 7.5015 0.83113 2.9614-1.0106 4.148-2.6952 3.3155-6.354 0.76053 0.0345 2.0476-0.0795 2.2452-0.75305 3.4638 1.5606 5.3342-1.1776 6.0606-3.5382 2.3e-4 -8.8e-4 0 0 0 0 2.1189 2.2948 6.7053 1.6063 9.1956-0.74269 1.7961-2.4641-1.4504-3.1989-2.1569-4.296 5.1963-4.0418 0.66603-7.389 3.827-9.2175 0.58341 0.90212 1.1243 1.2406 2.0225 1.6259 3.2622-4.6882 0.78374-4.0131-1.0064-4.0193-0.99746-0.41225-2.2936-0.27202-3.1612 0.32318-2.6802 1.1412 0.30643 8.8316-2.8706 8.7999-2.6572 1.6921-1.2913 4.2802 0.99333 5.5539-1.7388 1.3419-4.4423 1.5616-5.2455 0.65244-0.91807-1.6471-2.8686-2.134-3.3046 0.72485-0.85199 2.7932-1.6096 2.8928-4.296 3.2759-1.1578-1.4992-0.10872-4.5224-0.74743-6.5607 4.3111-2.2013-0.61449-7.053-0.44181-6.8889 1.0954-0.87726 2.718-1.3026 4.2144-2.1678 1.5516-0.73376 2.6324-2.468 2.007-4.3401-1.0354-1.362-0.99719-3.6666-2.2936-4.1374 0.08-1.6998 2.4232-2.1812 3.2229-2.5181 2.8818-0.61201 3.0765-1.844 2.1127-3.7848 1.4241 0.68157 3.6065 0.93371 4.5032 2.212-0.0781 1.4798-1.2102 2.1531-0.0445 3.7695 2.4919 1.3795 4.8133 2.2367 5.3535 5.0891 2.4154 1.2 2.5666 0.52877 2.5666 0.52877-0.26258-2.7992-1.9055-4.9836-3.9611-6.1246-0.16053-0.30259 0.1245-0.38895 0.0753-0.72793 4.1784-0.0448 5.2903-0.78389 6.6709-3.2397 0.4546-0.76087 0.41753-1.9978 0.38743-3.1539 0.32078-2.8887-3.0523-4.1254-5.6336-5.7432-0.87329-1.5968-0.49437-4.3114-1.7118-6.7458-1.5523-1.8025-3.5203-1.0786-5.3667-0.61465 0 0-0.79014 0.90517 0 0 0.68495-4.0833-2.9177-4.0674-5.6706-2.6371-0.16369-0.37348-0.36875-0.68-0.60358-0.92092 4.2857-5.5838-0.14613-6.3589-1.0661-8.3408 1.5717-4.796-2.6213-7.6612-5.6619-4.8974-1.5787-3.8559-2.6756-5.6036-5.1221-5.9527zm0.0651 2.7012c1.4885 0.91166 1.4197 2.5872 2.0995 3.8598 0.91332 1.7485 2.5504 2.3893 4.0692 1.9276 0.91179-0.69754 2.4481 0.2055 2.1876 0.72262-0.9914 2.756 0.57327 4.0096 2.3981 5.3909 1.1725 1.11 0.62819 2.8142 0.0706 3.9854-1.1751-0.361-2.5303-0.35114-3.675-0.29904-1.4258-1e-3 -2.3082-0.41737-3.8748 0.0661 0.5609-5.3904-2.0055-2.6895-2.8371-3.5668-0.38262-2.4702 0.52038-5.6405-1.4421-6.0803-0.94762-0.28222-1.8251-0.0383-2.4145 0.52873-1.7091-2.2662-2.7676-3.4-4.6111-3.9611-0.95345-0.081-1.7395 0.17184-2.3881 0.53755 0.10691-0.39094 0.18054-0.86457 0.17389-1.443 2.9114-2.6481 4.9375 0.44297 6.9266-0.11897 1.14-0.26 2.192-2.1031 3.3174-1.5496zm-8.4899 4.4899c2.008-0.18012 2.8773 3.2127 4.6457 4.0069 0.97955 0.19098 1.895-0.77927 1.985-0.89668 1.2238 0.48562 0.46609 3.4077 0.98276 4.7873 0.38369 0.79312 1.1454 1.1167 1.8417 1.0354 1.3332-0.16735 1.436 1.5206 1.5477 2.3729-0.79531 0.46656-4.7527 2.7868-4.0855 4.1675 0.19177 0.26008 1.9142-1.7815 4.6968-2.5776 0.81395-0.33637 2.0577 0.32954 4.0008 0.36363 0.98833 0.0645 2.0492 0.0684 2.8156 0.35258 1.3078 0.45249-0.20072 2.9888-0.18948 4.3666-0.0385 1.0023 0.10983 2.9618 1.5995 3.1085 2.1996 0.21664 4.2243-0.21145 4.5207 1.6765 0.79341 3.2134-2.8442 1.4374-4.5868 3.6835-2.063 2.5948 0.75929 3.6798 2.2848 5.2169-1.5418 1.2067-5.3679 1.2362-4.5008 4.1528-1.6678-0.81308-3.3142-0.16908-4.7102 0.78647-0.13208-0.21773-0.28306-0.36705-0.43178-0.45603 1.2752-0.64695 2.7515-1.2937 3.6157-2.1083 0.69456-1.0057 0.5526-2.0898-0.33271-2.7979-0.0543-0.85293 0.94842-2.1469 1.0993-2.9037 0.13457-1.409-0.35-2.7063-1.205-3.6989-0.71951-0.68549-1.3251-1.2438-2.1855-1.7074 0.36942-0.48258 1.1283-1.096 1.4673-1.6942 0.25311-1.293-0.23907-2.1824-0.9121-2.4828-3.0242-1.7675-6.2459-0.10088-7.735 1.9299-0.47444 0.553-0.91146 1.0077-1.3262 0.93625-0.52912-0.058-1.3258-0.0428-2.1415 0.48033-1.1539 1.1785-1.1335 2.8439-1.2646 3.494-0.46693 1.672-1.3029 2.5376-1.8306 3.0292-0.73982-0.54509-1.6322-0.84408-2.5511-0.85475-2.0734-0.0216-3.8791 1.4104-4.3291 3.4346-1.4599-0.44673-4.3251-0.76058-7.1445 0.98698-1.199-6.0366-6.6047 0.94871-6.4176-1.2208-0.5788-2.0479 0.9909-3.814 0.95861-5.5429-0.89148-3.405-3.5743-2.2497-5.6089-1.779 0.25507-1.3475 1.2521-2.8671 1.8219-3.9413 0.76443-1.2279 1.8826-5.0968 0.66968-5.4651-3.1425-0.70274-4.7804-0.35539-4.8386-2.4115 1.9804-1.127 1.6791-0.82313 6.6584-0.27116 1.1716-0.45365 1.7073-1.4198 1.377-2.549 1.8926 0.90854 2.5782 4.1523 4.4678 3.8114 0.38304-0.49619 0.42699-2.7584 1.0135-2.4393-0.0359 0.90415-0.37036 1.9389 3e-3 2.7627-1.379 0.59571-2.9361 3.9645-0.45377 5.4942 0-0.0125 0.0243-0.0256 0.0243-0.0341 0.0809 0.0953 0.0451 0.0882-0.0243 0.0341-0.10087 0.23189-0.66144 0.51707-1.2382 1.161-1.0854 1.9788-0.22284 3.3372 1.78 4.8204-0.46237 0.47462-0.53538 1.496-0.0994 2.2074 0.81626 1.1246 3.5477 3.8104 4.6661 3.721 0.85287-0.61431-2.4524-2.5877-3.3354-4.4722-0.50212-1.0082 0.39358-1.0692 0.49972-1.8294 0.11087-0.6825-1.3904-2.15-1.8078-3.1231-0.29643-0.67656 0.97113-0.73456 1.4235-1.3004 0.60077-1.5148 0.11835-2.8268-0.60365-3.4104-0.27036-1.5893 2.7614-2.5632 3.6948-3.124 1.1522-1.0389 1.4135-3.4343 1.3461-3.906 1.2043-0.79338 2.608 2.4402 3.6107 2.9987 2.1358 0.41229 3.0431-0.42586 3.6949-2.1195 0.76276 0.63389 1.3341 1.3589 1.3637 2.0996 0.14595 1.9433 2.8262 2.8447 2.2735 3.9391-2.0431 1.7555-3.4082 3.8373-3.3155 6.7701-0.12208 1.0256-1.2846 3.0996-0.0243 3.3861 0.58315 0.0763 0.82806-2.1358 1.1676-3.0822 0.51816-2.904 2.232-4.2952 3.95-6.162 2.1344-3.5571-1.7745-3.768-1.7405-5.0538-0.32115-2.068-2.4179-4.8094-4.3512-4.587-0.96914 0.1487-1.2234 1.9066-2.0091 2.4013-2.1441-2.567-3.1979-3.4278-5.371-3.1039-1.5444-0.14037-1.7601 2.4201-1.9319 4.2321-0.77796 0.47807-1.315 0.77831-2.134 1.3291-0.56772-0.60362 0.46936-2.2585-0.16113-3.5714-1.6088-2.7596 1.1016 0.93928 2.1939-0.6352 0.47985-1.0754 0.0836-1.6924-0.71623-2.773-0.67177-2.2578 1.2209-1.8717 2.23-1.8091 2.0685 0.15542 3.4289 0.21117 4.703-2.3212 0.47061-0.39048 1.3646 0.65551 1.9922 0.49064 1.1515-0.18474 0.64646-1.5213 2.9577-1.8114zm-32.711 4.2295c2.4642 1.248 5.1519 3.2652 8.0236 1.8794 0.39266 0.99154-2.0386 1.5571-2.179 3.2253-8.7e-4 2e-3 0 2e-3 0 3e-3 -1.13 0.28818-2.2092 0.95903-2.9212 2.2339 0.0597 2.6082 2.2325 4.1864 4.9327 4.1769-0.0393 0.90464 0.23851 1.275-0.64598 2.3594-1.1052-1.6502-2.782-3.888-5.0874-4.1641-2.7971 2.115-9.1788-2.9824-12.328 3.8209-2.7011-3.5863-0.4764-4.7751 1.0423-6.0133 1.2948-1.5845 1.3475-3.2572 1.0179-5.1398-1e-4 -8e-5 3.5e-4 0 4.6e-4 0 2.1209 0.35306 3.8667 1.6347 5.675 0.64527 1.0527-0.83229 0.88674-2.3948 2.47-3.0272zm53.718 9.6117c1.0707 0.11185 3.6403-0.42288 4.055 0.50876-0.5894 1.4267-1.6546 2.5107-0.24679 3.3927 2.6188 0.49617 2.6715-1.3472 5.0388-0.54355 0.59899 1.3032 0.86331 5.4112 1.5175 6.8512-0.0392 1.4402 5.3237 4.3529 5.5144 4.7697 0 3.3665-2.2672 4.309-3.8928 4.3291-1.3428-0.0441-2.7607 0.53431-2.4937 1.9784-0.41994-0.12251-0.78202-0.23285-1.0045-0.36578 0.47951-0.98776 0.60899-2.4728-0.0395-3.32-1.6687-1.4383-4.275-1.9177-6.2259-1.8093-0.48125-0.57825-1.1266-1.1058-1.5223-1.6787 0 1e-3 0-2e-3 -0.0146-0.0104 0 2e-3 0 2e-3 0.0146 0.0104 0.47576-0.32449 1.5182-0.35515 2.7847-0.88344 1.8228-0.87293 2.9256-2.7997 2.5202-4.719-0.33366-1.5798-1.5202-2.6319-2.8133-3.0468-0.98321-0.31546-1.2973-0.095-2.9874-0.52009-1.6927-1.1291 0.39689-3.0657-0.20466-4.943zm-46.853 4.911c-0.99073 1.9169-2.2116 4.0987-1.758 5.9572 1.872 2.553 4.453 0.41866 5.6796 0.94954-0.25641 2.0679-1.3728 4.1165-0.43616 6.0584 1.3638 1.7465 3.2905 1.1683 4.274 0.31929 1.7011-0.84487 2.3358-1.1726 3.2737 0.40979 0 0.0104 0.0146 0.0104 0.0146 0.0166-0.95266 0.66887-1.8873 1.5869-2.7472 2.8354-0.40349 0.39522-0.7348 0.81382-0.89457 0.22474-3.3373-0.51236-2.9245 2.6344-2.1194 3.9391 0.92407 1.4615 2.8303 0.93669 3.5193 2.0687-5.5301 2.9296-4.6624-0.21739-6.436-0.34402-1.488-0.6544-2.8731 0.23877-3.2011 1.3262-1.2408 1.815-2.5513-0.35321-1.8726-1.4694 0.4284-1.8155-0.63416-3.3396-2.1414-3.6901-1.4899-0.48829-3.2175-0.47988-4.8027 0.20051-4.8514-1.3107 2.0861-6.5346-0.37021-8.6492-1.6308-1.9328-5.4809-2.5999-7.4838-1.8836h1.2e-4c-0.73264-3.4649 3.4307-4.3231 4.3595-6.5431-0.476-1.557-0.67907-1.8433-1.811-1.9926 3.3741-3.2038 7.2688-1.1438 10.881-2.0127 1.5215 0.0535 3.0503 1.3074 4.0723 2.2794zm37.373 1.2139c0.44753 0.0443 0.86637 0.21059 1.2183 0.53977v4e-3c-0.20342 0.20383-0.12687 0.21745-0.54182 0.4913-0.41951 0.25877-0.89892 0.89453-1.0267 1.9563 0.2716 1.4189 1.1511 2.1853 1.8484 2.4146 0.84086 0.57163 1.821 1.6942 1.584 2.6304-0.0666 0.7748-0.68655 1.66-1.1015 2.8331 0.0243 1.1022 0.35128 1.7323 0.64994 2.0687-0.51235 0.35299-1.0654 0.63227-1.5243 0.88124-0.64799 0.19156-1.659 0.70188-2.2405 1.9387-0.18246 1.1814 0.36585 1.5499 0.99107 2.0269-1.3345 1.844-3.7238 1.7645-5.3204 0.65666-0.95416-0.64102-1.8435-1.9176-2.8618-2.1348-0.55798 0.39026 1.2408 2.0854 2.1458 2.9785 1.1365 1.0806 3.5648 2.1112 5.966 0.68734 1.2694-0.51837 2.0844-1.4446 1.7819-2.7406 1.1422-0.44995 4.3619-0.85061 4.0866 0.35688 0.28605 1.7194 1.1644 2.6626 1.8463 4.0427 0.29334 1.6224-3.9954 1.9514-5.8559 3.9787-0.89404 1.3522-0.94242 3.0309 0.20935 4.1044 1.349 2.2084-1.0876 3.9695-2.7293 2.853-4.0773-1.8671-4.9249 2.1649-6.8648 2.853-1.3757 0.0247-1.8826-2.6599-2.9269-2.2179 0.95578 2.845 1.6671 3.4822 3.1283 3.4875 1.615-0.21173 4.2718-4.0346 5.5562-2.5952 1.1232 0.82025 2.3404 1.1628 3.7064 0.5646 0.54132 2.4706-0.23295 4.069 0.11058 6.0023-1.8397-0.33293-1.9435 1.4219-1.6907 3.3845-2.1419 4.4699-4.6435 1.3567-9.5767 1.595-0.94351 0.15018-1.7021 0.88492-1.877 2.0422 0.0341 1.8541 0.83976 3.31 1.0993 4.4964 0.0637 2.9323-6.0304 1.9849-6.4194-0.42634 0.45286-0.58118 0.37216-2.0388-1.1301-3.1945-1.7419-0.47035-1.9974 0.74884-3.6902 1.6722-2.4113-0.62501-1.4445-5.9154-3.796-6.219-1.3491-0.0759-2.0011 0.51671-2.007 1.0288-1.7545 1.5884-4.2938-2.4744-3.0644-4.8063 0.93486-1.1732 2.4196 1.2864 5.3513-1.2984 5.0708-3.1476 2.3029-4.2153 2.6471-6.1809 0.30336-0.794 0.3498 2.1335 2.3182 0.8116 0.48562-1.0764 1.247-3.5139 0.33565-4.117-0.33067-0.28559-0.51584 2.1733-1.1536 2.7205 0.22531-1.3326-2.3614-1.612-2.4861-0.7533-0.48365 1.1518-0.26906 2.3824-0.39648 3.1879 0.4428 1.2563-3.2709 3.775-5.1067 2.8881-3.0481-1.0764-3.8834 1.4123-6.2148 2.397-3.9041 1.1856-2.138-4.8247-4.783-5.0032-1.4954-0.57689-7.8752 1.2593-7.823 0.62734-0.58809-2.48 1.2481-5.2036 1.5856-7.4618-0.12273-3.6099-5.3376-1.6934-6.5739-3.6242-0.87764-1.4678 1.663-5.647 2.0466-6.9308 0.87994 1.642 2.5513 2.7058 4.5273 2.2934 1.3205-0.4517 3.1951-0.64708 3.9809 0.41855-0.6338 1.7155 0.0564 3.3953 1.2162 4.3026 2.221 0.88674 4.0177-0.10265 4.8247-2.0115 0.68748 0.32957 0.68825 1.6424 1.9239 1.9933 2.1089 0.76807 4.8989-0.47567 6.4097-1.8392 0.80619 1.5742 1.3535 4.1889 3.44 4.0644 1.107-0.0154 2.2834-0.54839 3.2693-0.10579 1.7287 0.97574 1.1456 5.5031 7.1337 6.5277 2.0167-0.15232 2.788-0.90682 4.0932-3.0424 1.3658 1.9045 2.0645 2.058 3.4588 1.5975 1.4265-1.4725 1.2373-3.4524 1.2116-4.5097-0.0227-1.6234 0.41992-3.354-2.408-3.9612 0.76046-0.36008 1.2542-3.3206-0.45856-3.6193-0.55097 0.26554 0.69511 1.2508-0.22054 2.7713-0.32871 0.11377-0.71608 0.63162-0.34365 1.5553 2.384 0.92377 2.3872 2.6041 1.2711 6.2545-1.8679-1.6987-1.5727-2.2278-3.1438-2.029-1.5076 0.1787-2.8361 3.3083-3.3533 2.8453-2.0724-0.28009-3.5824-1.7255-4.2251-3.9733-0.86136-1.908-1.532-3.3155-4.6-2.7583-3.5461 1.1517-3.2118-3.6178-5.6795-4.8588-1.0373-0.41822-1.9213-0.6534-2.3551-1.2051-0.39331-1.2456 2.0969-0.78869 2.9601-1.9541 2.4324-4.2732 6.7953-4.4822 8.8123-4.4744-0.0146 0.12334-0.0166 0.24637-0.0216 0.37002-0.0243 2.4225 1.9176 4.407 4.3401 4.4326 2.4217 0.027 4.4058-1.9163 4.4326-4.3378 0.0146-1.2142-0.47724-2.3796-1.3549-3.2187 0.77998-0.35258 1.8838-1.2083 2.5731-2.9962 0.45988-1.0426 0.40842-2.4135 1.0707-2.6635 1.7897 0.656 3.0251-0.30686 3.9413-1.4953 0.8923-1.0218 2.5016-1.996 3.8443-1.8638zm-309.63-11.077c-0.48364 1.4137-0.51802 1.9299-0.10523 3.544-0.19826 0.14435-0.31438 0.25586-0.36662 0.31233-5.6441 15.922-13.075 61.265 6.8007 78.434 18.639 17.335 40.606 0.3571 57.606-10.575 2.1393 4.7005-13.758 26.774-8.9359 32.047 10.181 8.7576 32.69-13.555 41.072-24.288-3.521 8.1969-7.3166 16.536-10.46 23.848-9.872 7.7177-43.474 38.181-32.803 49.113 18.888 9.5374 35.193-37.057 40.736-51.418 11.832-9.1957 24.416-16.007 36.393-23.051-5.1317 5.6693-8.5965 13.797-6.6483 19.282 2.3795 6.6998 11.624 8.7897 18.218 6.1629 14.381-5.7292 30.501-16.079 42.938-23.316-4.5744 5.5388-6.1193 16.203-1.6235 20.789 3.483 3.3541 9.9684 2.9837 14.672-0.0459 2.8936-1.9719 5.1851-4.69 6.6492-7.5343-0.32546 3.2396-2.003 6.4734 1.02 8.9974 1.3674 1.1417 3.2204 0.19814 4.5216-0.57627l23.582-13.83 23.803-13.963-6.7383 15.07c-2.7694 5.7545-6.431 11.586-0.17652 13.786 0.88653 0.29538 1.9507 0.44218 3.1918 0.44218 1.7421 0.56234 21.516-10.607 29.744-15.336 2.6577-1.5344 2.7391-4.7192 0-3.6795-8.7139 5.1415-18.69 10.242-28.504 15.205 1.9757-9.8885 14.118-27.067 11.216-30.054-2.4629-2.5354-5.7279-0.6296-8.5561 0.97512-8.4282 4.7519-15.457 8.9044-23.98 13.874-6.9795 3.9943-15.251 8.6936-21.587 12.323-1.4961-1.4368 5.011-16.261 7.3145-23.494 0.63025-1.1821 2.4208-0.1517 3.2783-0.75181 0.85202-0.59624 0.45209-1.981-0.21978-2.3941-7.3199-4.5005-19.516-2.1123-28.458 1.5956-20.031 9.2899-47.676 29.406-56.251 28.325-16.855-3.0838-1.3096-26.429 5.2294-28.281 4.3399 0.46945 1.1034 5.5169 3.0585 7.048 4.3052 2.0311 7.025-2.4918 7.1813-5.0537 0-1.4186-0.73996-2.5263-2.2175-3.3242-4.1734-1.6869-8.5926-1.6071-12.587-0.22233-14.259 6.9769-30.233 16.952-42.422 25.622 2.4954-6.5986 4.7008-13.631 6.8715-19.681 1.3245-2.6028 0.55319-5.2827-2.5723-5.0972-2.743-0.12843-2.7774 2.4441-3.5015 4.2102-9.885 8.8463-30.406 27.999-35.363 25.582-2.9256-0.5847 3.7969-10.414 5.1764-12.727 3.3451-4.9244 10.472-20.513 1.9943-20.834-7.6389-2.1806-28.695 18.371-44.054 18.252-4.9478-0.24042-10.591-1.9781-14.977-6.067-12.829-9.9121-11.983-43.183-8.943-61.09 1.8406-6.9199 3.33-12.149 4.3926-13.27 0.02106-1.5624-0.03106-1.88 1.6759-3.9937 12.515-21.448 154.35-25.154 188.69-25.154 34.375 0 176.22 3.7057 188.68 25.154 8.7939 16.295 10.371 62.564 1.3654 73.81-9.4989 12.055-21.84 10.489-31.667 8.1959-6.0273 2.9955-12.256 7.8597-18.187 11.25 4.1419-2.5245 7.6235-9.0597 5.7622-14.096-0.68009-1.8909-1.6956-4.0335-1.4632-5.8514 0.59766-2.2982 2.8515-4.0457 4.3884-5.585 1.0716-0.8071 0.94179-2.1034-0.0891-2.6164-2.3886-1.027-6.3117-0.34226-7.979 0.75444-8.7415 5.9613-18.184 12.105-26.108 17.464-1.0894 0.88341-2.795 2.3818-1.7287 3.6365 0.52288 0.48819 1.2209 0.39201 1.7287 0.0433l27.172-18.131c-2.8259 2.5803-4.3766 8.8043-4.4767 12.236-0.72863 13.626-9.2531 19.034-13.21 19.236-0.85844 0.67794-0.81991 1.5835-0.0874 2.1717 1.7919 0.88567 4.0927 0.44695 5.8506 0.0458 4.4843 0.35874 19.077-11.187 28.959-16.736 6.013 1.714 12.844 2.1776 18.947 0.54314 5.3349-1.4287 10.846-5.2339 14.108-8.6885 4.6133-5.2065 7.6991-12.072 8.5264-19.549 1.3855-12.521 4.6331-42.609-5.4854-59.025-3.6821-25.934-138.77-30.854-195.01-30.877-56.204 0.0221-191.29 4.9417-194.98 30.875zm8.377 6.1893c-1.4206 23.505 115.01 23.808 186.6 23.505 35.604 0 56.381-0.42228 63.615-0.43584 0.47047-1.0576 1.6495-3.8715 2.033-4.6859-25.159 0.18202-44.322-0.0402-65.648-0.0313-62.132 0-163.74 1.614-184.02-15.451-1.2047-0.81454-2.1623-1.605-2.5842-2.8973zm371.91 2.1742c-0.37371 1.0676-1.539 1.9605-2.5215 2.5612-4.6252 2.7433-8.5657 4.1842-19.278 6.175-24.273 4.6702-22.779 0.49887-24.352 8.1948 3.8645 0 46.571-3.79 46.151-16.931zm-169.18 64.06c-2.5053 6.2522-4.0692 11.979-8.6056 18.486-3.7992 5.4494-8.6238 10.201-15.342 8.1123-5.3679-1.669-5.9044-25.428 23.948-26.598zm176.86 17.789c-1.1378-0.0104-0.78306 31.13-1.7256 80.111-35.281 30.906-109.11 33.83-191.26 34.692-82.107-0.9002-155.94-3.7858-191.27-34.699-1.6483-46.342-2.6207-75.197-3.7217-75.202-1.101 0.027-0.57311 29.298 0.0062 77.021 39.045 41.157 152.45 38.814 194.98 39.521 42.568-0.70777 155.92 1.6434 195.01-39.521 0.17554-51.141-0.88345-81.911-2.0264-81.924zm-303.7 19.157c-3.4445 8.3483-15.352 37.769-25.381 38.989-8.5504-1.2719 16.06-29.874 25.381-38.989zm22.512 21.884c-4.1221 0-7.2407 3.353-7.2407 7.4537s3.1186 7.4325 7.2407 7.4325c1.7727 0 3.5025-0.6618 4.7626-1.7083l-0.49137-0.55587c-1.1106 0.93974-2.6694 1.4953-4.2713 1.4953-3.6735 0-6.4718-2.9901-6.4718-6.6636 0-3.6736 2.7983-6.6848 6.4718-6.6848 1.6019 0 3.1607 0.57588 4.2713 1.5157l0.49137-0.57623c-1.2601-1.0466-2.9899-1.7083-4.7626-1.7083zm15.83 0-5.7886 14.566 0.72642 0.25555 1.559-3.9505h7.5819l1.5811 3.9505 0.7264-0.25555-5.8098-14.566zm21.487 0-8.5426 10.017v-9.8249h-0.74764v14.502h0.74764v-3.5024l2.9686-3.4812 5.0401 5.916c0.57667 0.68343 1.0038 1.0676 1.794 1.0676h0.12792v-0.76888h-0.12792c-0.49124 0-0.70439-0.2134-1.217-0.79011l-5.1046-6.0229 5.6384-6.6212zm28.619 0c-2.5843 0-4.9553 1.4089-4.9553 3.4379 0 4.5066 9.9106 3.2685 9.9106 7.4334 0 1.6872-2.1147 3.2461-4.9553 3.2461-2.7979 0-4.5701-1.3673-5.1895-1.9867l-0.53469 0.53467c0.72617 0.74754 2.6486 2.2209 5.7242 2.2209 3.0542 0 5.7242-1.7083 5.7242-4.0149 0-4.891-9.9318-3.7171-9.9318-7.4334 0-1.3242 1.7301-2.669 4.2076-2.669 2.4134 0 3.9513 1.1315 4.4639 1.6014l0.49137-0.57621c-0.61937-0.55531-2.3069-1.7941-4.9553-1.7941zm114.31 0c-2.5843 0-4.9553 1.4089-4.9553 3.4379 0 4.5066 9.9105 3.2685 9.9105 7.4334 0 1.6872-2.1146 3.2461-4.9552 3.2461-2.7979 0-4.571-1.3673-5.1904-1.9867l-0.53382 0.53467c0.72615 0.74754 2.6487 2.2209 5.7242 2.2209 3.0542 0 5.7242-1.7083 5.7242-4.0149 0-4.891-9.9318-3.7171-9.9318-7.4334 0-1.3242 1.7301-2.669 4.2076-2.669 2.4135 0 3.9513 1.1315 4.4639 1.6014l0.49135-0.57621c-0.61931-0.55531-2.3068-1.7941-4.9552-1.7941zm16.852 0c-2.5843 0-4.9552 1.4089-4.9552 3.4379 0 4.5066 9.9106 3.2685 9.9106 7.4334 0 1.6872-2.1147 3.2461-4.9553 3.2461-2.7978 0-4.57-1.3673-5.1895-1.9867l-0.53465 0.53467c0.72624 0.74754 2.6486 2.2209 5.7242 2.2209 3.0542 0 5.7242-1.7083 5.7242-4.0149 0-4.891-9.9318-3.7171-9.9318-7.4334 0-1.3242 1.7301-2.669 4.2076-2.669 2.4135 0 3.9514 1.1315 4.4639 1.6014l0.49136-0.57621c-0.61934-0.55531-2.3069-1.7941-4.9553-1.7941zm65.91 0c-2.5844 0-4.9553 1.4089-4.9553 3.4379 0 4.5066 9.9097 3.2685 9.9097 7.4334 0 1.6872-2.1138 3.2461-4.9544 3.2461-2.798 0-4.5709-1.3673-5.1904-1.9867l-0.5338 0.53467c0.72613 0.74754 2.6486 2.2209 5.7242 2.2209 3.0542 0 5.7233-1.7083 5.7233-4.0149 0-4.891-9.9309-3.7171-9.9309-7.4334 0-1.3242 1.7301-2.669 4.2076-2.669 2.4134 0 3.9505 1.1315 4.463 1.6014l0.49141-0.57621c-0.61937-0.55531-2.3061-1.7941-4.9544-1.7941zm-37.91 0.1901v14.503h0.74763v-6.1086h1.9222c1.8795 0 2.8833 0.0641 3.8444 1.5589l2.1997 3.4387c0.61939 0.96113 1.1753 1.1109 1.8374 1.1109v8.7e-4h0.12813v-0.76888h-0.12813c-0.53392 0-0.791-0.14871-1.1754-0.74682l-2.2209-3.46c-0.4058-0.61947-0.89704-1.026-1.4096-1.2823v-0.0216c1.1106-0.0853 2.0716-0.40557 2.5842-0.81132 1.0466-0.81162 1.581-2.0076 1.581-3.2037 0-2.1144-1.6445-4.2076-4.8695-4.2076zm-180.22 2e-3v14.502h9.9097v-0.76888h-9.162v-6.0866h5.3397v-0.76887h-5.3397v-6.1086h8.3932v-0.76894zm95.916 0v14.502h4.9544c4.0153 0 7.2407-3.2245 7.2407-7.2398 0-4.0154-3.2254-7.2619-7.2407-7.2619zm18.396 0v14.502h9.9097v-0.76888h-9.1629v-6.0866h5.3397v-0.76887h-5.3397v-6.1086h8.394v-0.76894zm49.807 0v14.502h9.9097v-0.76888h-9.1629v-6.0866h5.3397v-0.76887h-5.3397v-6.1086h8.394v-0.76894zm31.435 0v0.76891h5.3389v13.733h0.76887v-13.733h5.3397v-0.76891zm-98.891 0.76891h4.2067c3.5881 0 6.4718 2.9049 6.4718 6.493s-2.8837 6.471-6.4718 6.471h-4.2067zm84.305 0h4.2934c2.7765 0 4.1007 1.7515 4.1007 3.4387 0 1.5805-1.2174 3.4388-4.1007 3.4388h-4.2934zm-209.72 0.40566 3.4812 8.7572h-6.9836zm75.938 1.009-3.8588 9.7103 0.48373 0.1716 1.0396-2.6342h5.0546l1.054 2.6342 0.48371-0.1716-3.8724-9.7103zm9.6882 0v9.796h0.49817v-8.8854l6.0942 9.0135h0.52699v-9.796h-0.51258v8.8989l-6.0942-9.0271zm13.321 0.12813v9.6678h3.303c2.6769 0 4.8271-2.1502 4.8271-4.8271 0-2.6768-2.1503-4.8407-4.8271-4.8407zm0.49815 0.5126h2.8048c2.3921 0 4.3146 1.936 4.3146 4.3281 0 2.392-1.9224 4.3146-4.3146 4.3146h-2.8048zm-23.308 0.26985 2.3211 5.8379h-4.6565z" fill="url(#linearGradient956)"/>
  <ellipse cx="385.93" cy="218.8" rx="3.2134" ry="3.2185" fill="#d4aa00" fill-rule="evenodd"/>
 </g>
</svg>
